<svg width="1442" height="754" viewBox="0 0 1442 754" fill="none" xmlns="http://www.w3.org/2000/svg">
<path opacity="0.4" d="M801.507 184.531C802.152 184.531 802.675 184.008 802.675 183.363C802.675 182.718 802.152 182.195 801.507 182.195C800.862 182.195 800.339 182.718 800.339 183.363C800.339 184.008 800.862 184.531 801.507 184.531Z" fill="white"/>
<path opacity="0.4" d="M667.968 226.769C668.613 226.769 669.136 226.246 669.136 225.601C669.136 224.956 668.613 224.434 667.968 224.434C667.323 224.434 666.8 224.956 666.8 225.601C666.8 226.246 667.323 226.769 667.968 226.769Z" fill="white"/>
<path opacity="0.4" d="M819.466 289.929C820.111 289.929 820.634 289.407 820.634 288.762C820.634 288.117 820.111 287.594 819.466 287.594C818.821 287.594 818.298 288.117 818.298 288.762C818.298 289.407 818.821 289.929 819.466 289.929Z" fill="white"/>
<path opacity="0.4" d="M852.998 344.527C853.643 344.527 854.166 344.004 854.166 343.359C854.166 342.714 853.643 342.191 852.998 342.191C852.353 342.191 851.83 342.714 851.83 343.359C851.83 344.004 852.353 344.527 852.998 344.527Z" fill="white"/>
<path opacity="0.4" d="M785.596 266.086C786.241 266.086 786.764 265.563 786.764 264.918C786.764 264.273 786.241 263.75 785.596 263.75C784.951 263.75 784.428 264.273 784.428 264.918C784.428 265.563 784.951 266.086 785.596 266.086Z" fill="white"/>
<path opacity="0.4" d="M914.418 256.109C915.063 256.109 915.586 255.586 915.586 254.941C915.586 254.296 915.063 253.773 914.418 253.773C913.773 253.773 913.25 254.296 913.25 254.941C913.25 255.586 913.773 256.109 914.418 256.109Z" fill="white"/>
<path opacity="0.4" d="M755.276 153.293C755.921 153.293 756.444 152.77 756.444 152.125C756.444 151.48 755.921 150.957 755.276 150.957C754.631 150.957 754.108 151.48 754.108 152.125C754.108 152.77 754.631 153.293 755.276 153.293Z" fill="white"/>
<path opacity="0.4" d="M681.886 174.508C682.531 174.508 683.054 173.985 683.054 173.34C683.054 172.695 682.531 172.172 681.886 172.172C681.241 172.172 680.718 172.695 680.718 173.34C680.718 173.985 681.241 174.508 681.886 174.508Z" fill="white"/>
<path opacity="0.4" d="M644.951 175.48C645.596 175.48 646.119 174.957 646.119 174.312C646.119 173.667 645.596 173.145 644.951 173.145C644.306 173.145 643.783 173.667 643.783 174.312C643.783 174.957 644.306 175.48 644.951 175.48Z" fill="white"/>
<path opacity="0.4" d="M624.656 239.664C625.301 239.664 625.824 239.141 625.824 238.496C625.824 237.851 625.301 237.328 624.656 237.328C624.011 237.328 623.488 237.851 623.488 238.496C623.488 239.141 624.011 239.664 624.656 239.664Z" fill="white"/>
<path opacity="0.4" d="M648.356 274.941C649.001 274.941 649.523 274.418 649.523 273.773C649.523 273.128 649.001 272.605 648.356 272.605C647.71 272.605 647.188 273.128 647.188 273.773C647.188 274.418 647.71 274.941 648.356 274.941Z" fill="white"/>
<path opacity="0.4" d="M565.913 359.465C566.558 359.465 567.081 358.942 567.081 358.297C567.081 357.652 566.558 357.129 565.913 357.129C565.268 357.129 564.745 357.652 564.745 358.297C564.745 358.942 565.268 359.465 565.913 359.465Z" fill="white"/>
<path opacity="0.4" d="M574.188 337.179C574.834 337.179 575.357 336.657 575.357 336.012C575.357 335.367 574.834 334.844 574.188 334.844C573.543 334.844 573.021 335.367 573.021 336.012C573.021 336.657 573.543 337.179 574.188 337.179Z" fill="white"/>
<path opacity="0.4" d="M527.567 462.136C528.212 462.136 528.735 461.614 528.735 460.969C528.735 460.324 528.212 459.801 527.567 459.801C526.922 459.801 526.399 460.324 526.399 460.969C526.399 461.614 526.922 462.136 527.567 462.136Z" fill="white"/>
<path opacity="0.4" d="M545.866 424.523C546.511 424.523 547.034 424 547.034 423.355C547.034 422.71 546.511 422.188 545.866 422.188C545.221 422.188 544.698 422.71 544.698 423.355C544.698 424 545.221 424.523 545.866 424.523Z" fill="white"/>
<path opacity="0.4" d="M558.955 530.941C559.6 530.941 560.123 530.418 560.123 529.773C560.123 529.128 559.6 528.605 558.955 528.605C558.31 528.605 557.787 529.128 557.787 529.773C557.787 530.418 558.31 530.941 558.955 530.941Z" fill="white"/>
<path opacity="0.4" d="M517.639 555.613C518.284 555.613 518.807 555.09 518.807 554.445C518.807 553.8 518.284 553.277 517.639 553.277C516.994 553.277 516.471 553.8 516.471 554.445C516.471 555.09 516.994 555.613 517.639 555.613Z" fill="white"/>
<path opacity="0.4" d="M716.686 543.98C717.331 543.98 717.854 543.457 717.854 542.812C717.854 542.167 717.331 541.645 716.686 541.645C716.04 541.645 715.518 542.167 715.518 542.812C715.518 543.457 716.04 543.98 716.686 543.98Z" fill="white"/>
<path opacity="0.4" d="M792.995 534.883C793.64 534.883 794.163 534.36 794.163 533.715C794.163 533.07 793.64 532.547 792.995 532.547C792.35 532.547 791.827 533.07 791.827 533.715C791.827 534.36 792.35 534.883 792.995 534.883Z" fill="white"/>
<path opacity="0.4" d="M810.463 490.015C811.108 490.015 811.631 489.492 811.631 488.848C811.631 488.203 811.108 487.68 810.463 487.68C809.818 487.68 809.295 488.203 809.295 488.848C809.295 489.492 809.818 490.015 810.463 490.015Z" fill="white"/>
<path opacity="0.4" d="M727.682 479.07C728.327 479.07 728.85 478.547 728.85 477.902C728.85 477.257 728.327 476.734 727.682 476.734C727.037 476.734 726.514 477.257 726.514 477.902C726.514 478.547 727.037 479.07 727.682 479.07Z" fill="white"/>
<path opacity="0.4" d="M918.941 466.906C919.586 466.906 920.109 466.383 920.109 465.738C920.109 465.093 919.586 464.57 918.941 464.57C918.296 464.57 917.773 465.093 917.773 465.738C917.773 466.383 918.296 466.906 918.941 466.906Z" fill="white"/>
<path opacity="0.4" d="M871.2 458.73C871.845 458.73 872.368 458.207 872.368 457.562C872.368 456.917 871.845 456.395 871.2 456.395C870.555 456.395 870.032 456.917 870.032 457.562C870.032 458.207 870.555 458.73 871.2 458.73Z" fill="white"/>
<path opacity="0.4" d="M921.814 421.847C922.459 421.847 922.982 421.325 922.982 420.68C922.982 420.035 922.459 419.512 921.814 419.512C921.168 419.512 920.646 420.035 920.646 420.68C920.646 421.325 921.168 421.847 921.814 421.847Z" fill="white"/>
<path opacity="0.4" d="M934.806 367.64C935.451 367.64 935.974 367.117 935.974 366.473C935.974 365.828 935.451 365.305 934.806 365.305C934.161 365.305 933.638 365.828 933.638 366.473C933.638 367.117 934.161 367.64 934.806 367.64Z" fill="white"/>
<path opacity="0.4" d="M910.037 350.121C910.682 350.121 911.205 349.598 911.205 348.953C911.205 348.308 910.682 347.785 910.037 347.785C909.392 347.785 908.869 348.308 908.869 348.953C908.869 349.598 909.392 350.121 910.037 350.121Z" fill="white"/>
<path opacity="0.4" d="M920.595 301.219C921.24 301.219 921.763 300.696 921.763 300.051C921.763 299.406 921.24 298.883 920.595 298.883C919.95 298.883 919.427 299.406 919.427 300.051C919.427 300.696 919.95 301.219 920.595 301.219Z" fill="white"/>
<path opacity="0.4" d="M926.874 301.219C927.519 301.219 928.042 300.696 928.042 300.051C928.042 299.406 927.519 298.883 926.874 298.883C926.229 298.883 925.706 299.406 925.706 300.051C925.706 300.696 926.229 301.219 926.874 301.219Z" fill="white"/>
<path opacity="0.4" d="M789.441 213.972C790.087 213.972 790.609 213.45 790.609 212.805C790.609 212.16 790.087 211.637 789.441 211.637C788.796 211.637 788.273 212.16 788.273 212.805C788.273 213.45 788.796 213.972 789.441 213.972Z" fill="white"/>
<path opacity="0.4" d="M703.056 250.808C703.701 250.808 704.224 250.285 704.224 249.64C704.224 248.996 703.701 248.473 703.056 248.473C702.411 248.473 701.888 248.996 701.888 249.64C701.888 250.285 702.411 250.808 703.056 250.808Z" fill="white"/>
<path opacity="0.4" d="M762.428 264.48C763.073 264.48 763.596 263.957 763.596 263.312C763.596 262.667 763.073 262.145 762.428 262.145C761.783 262.145 761.26 262.667 761.26 263.312C761.26 263.957 761.783 264.48 762.428 264.48Z" fill="white"/>
<path opacity="0.4" d="M558.662 265.504C559.307 265.504 559.83 264.981 559.83 264.336C559.83 263.691 559.307 263.168 558.662 263.168C558.017 263.168 557.494 263.691 557.494 264.336C557.494 264.981 558.017 265.504 558.662 265.504Z" fill="white"/>
<path opacity="0.4" d="M523.722 316.984C524.367 316.984 524.89 316.461 524.89 315.816C524.89 315.171 524.367 314.648 523.722 314.648C523.077 314.648 522.554 315.171 522.554 315.816C522.554 316.461 523.077 316.984 523.722 316.984Z" fill="white"/>
<path opacity="0.4" d="M509.948 355.668C510.593 355.668 511.116 355.145 511.116 354.5C511.116 353.855 510.593 353.332 509.948 353.332C509.303 353.332 508.78 353.855 508.78 354.5C508.78 355.145 509.303 355.668 509.948 355.668Z" fill="white"/>
<path opacity="0.4" d="M518.318 241.66C518.963 241.66 519.486 241.137 519.486 240.492C519.486 239.847 518.963 239.324 518.318 239.324C517.673 239.324 517.15 239.847 517.15 240.492C517.15 241.137 517.673 241.66 518.318 241.66Z" fill="white"/>
<path opacity="0.4" d="M524.842 152.711C525.487 152.711 526.01 152.188 526.01 151.543C526.01 150.898 525.487 150.375 524.842 150.375C524.197 150.375 523.674 150.898 523.674 151.543C523.674 152.188 524.197 152.711 524.842 152.711Z" fill="white"/>
<path opacity="0.4" d="M703.933 139.523C704.578 139.523 705.101 139 705.101 138.355C705.101 137.71 704.578 137.188 703.933 137.188C703.288 137.188 702.765 137.71 702.765 138.355C702.765 139 703.288 139.523 703.933 139.523Z" fill="white"/>
<path opacity="0.4" d="M657.896 151.445C658.541 151.445 659.064 150.922 659.064 150.277C659.064 149.632 658.541 149.109 657.896 149.109C657.25 149.109 656.728 149.632 656.728 150.277C656.728 150.922 657.25 151.445 657.896 151.445Z" fill="white"/>
<path opacity="0.4" d="M791.291 137.672C791.936 137.672 792.459 137.149 792.459 136.504C792.459 135.859 791.936 135.336 791.291 135.336C790.646 135.336 790.123 135.859 790.123 136.504C790.123 137.149 790.646 137.672 791.291 137.672Z" fill="white"/>
<path opacity="0.4" d="M779.269 173.488C779.914 173.488 780.437 172.965 780.437 172.32C780.437 171.675 779.914 171.152 779.269 171.152C778.624 171.152 778.101 171.675 778.101 172.32C778.101 172.965 778.624 173.488 779.269 173.488Z" fill="white"/>
<path opacity="0.4" d="M758.002 211.199C758.647 211.199 759.17 210.676 759.17 210.031C759.17 209.386 758.647 208.863 758.002 208.863C757.357 208.863 756.834 209.386 756.834 210.031C756.834 210.676 757.357 211.199 758.002 211.199Z" fill="white"/>
<path opacity="0.4" d="M679.112 255.429C679.757 255.429 680.28 254.907 680.28 254.262C680.28 253.617 679.757 253.094 679.112 253.094C678.467 253.094 677.944 253.617 677.944 254.262C677.944 254.907 678.467 255.429 679.112 255.429Z" fill="white"/>
<path opacity="0.4" d="M652.734 271.636C653.379 271.636 653.902 271.114 653.902 270.469C653.902 269.824 653.379 269.301 652.734 269.301C652.089 269.301 651.566 269.824 651.566 270.469C651.566 271.114 652.089 271.636 652.734 271.636Z" fill="white"/>
<path opacity="0.4" d="M612.779 321.558C613.424 321.558 613.947 321.035 613.947 320.39C613.947 319.746 613.424 319.223 612.779 319.223C612.134 319.223 611.611 319.746 611.611 320.39C611.611 321.035 612.134 321.558 612.779 321.558Z" fill="white"/>
<path opacity="0.4" d="M605.484 345.644C606.129 345.644 606.652 345.121 606.652 344.476C606.652 343.831 606.129 343.309 605.484 343.309C604.839 343.309 604.316 343.831 604.316 344.476C604.316 345.121 604.839 345.644 605.484 345.644Z" fill="white"/>
<path opacity="0.4" d="M612.83 384.281C613.475 384.281 613.998 383.758 613.998 383.113C613.998 382.468 613.475 381.945 612.83 381.945C612.185 381.945 611.662 382.468 611.662 383.113C611.662 383.758 612.185 384.281 612.83 384.281Z" fill="white"/>
<path opacity="0.4" d="M624.851 413.719C625.496 413.719 626.019 413.196 626.019 412.551C626.019 411.906 625.496 411.383 624.851 411.383C624.206 411.383 623.683 411.906 623.683 412.551C623.683 413.196 624.206 413.719 624.851 413.719Z" fill="white"/>
<path opacity="0.4" d="M688.02 430.945C688.665 430.945 689.188 430.422 689.188 429.777C689.188 429.132 688.665 428.609 688.02 428.609C687.375 428.609 686.852 429.132 686.852 429.777C686.852 430.422 687.375 430.945 688.02 430.945Z" fill="white"/>
<path opacity="0.4" d="M737.707 438.293C738.352 438.293 738.875 437.77 738.875 437.125C738.875 436.48 738.352 435.957 737.707 435.957C737.062 435.957 736.539 436.48 736.539 437.125C736.539 437.77 737.062 438.293 737.707 438.293Z" fill="white"/>
<path opacity="0.4" d="M756.249 443.109C756.894 443.109 757.417 442.586 757.417 441.941C757.417 441.296 756.894 440.773 756.249 440.773C755.604 440.773 755.081 441.296 755.081 441.941C755.081 442.586 755.604 443.109 756.249 443.109Z" fill="white"/>
<path opacity="0.4" d="M813.286 425.738C813.931 425.738 814.454 425.215 814.454 424.57C814.454 423.925 813.931 423.402 813.286 423.402C812.641 423.402 812.118 423.925 812.118 424.57C812.118 425.215 812.641 425.738 813.286 425.738Z" fill="white"/>
<path opacity="0.4" d="M816.887 390.847C817.532 390.847 818.055 390.325 818.055 389.68C818.055 389.035 817.532 388.512 816.887 388.512C816.242 388.512 815.719 389.035 815.719 389.68C815.719 390.325 816.242 390.847 816.887 390.847Z" fill="white"/>
<path opacity="0.4" d="M804.623 324.48C805.268 324.48 805.791 323.957 805.791 323.312C805.791 322.667 805.268 322.145 804.623 322.145C803.978 322.145 803.455 322.667 803.455 323.312C803.455 323.957 803.978 324.48 804.623 324.48Z" fill="white"/>
<path opacity="0.4" d="M788.905 311.484C789.55 311.484 790.073 310.961 790.073 310.316C790.073 309.671 789.55 309.148 788.905 309.148C788.26 309.148 787.737 309.671 787.737 310.316C787.737 310.961 788.26 311.484 788.905 311.484Z" fill="white"/>
<path opacity="0.4" d="M789.148 283.797C789.794 283.797 790.316 283.274 790.316 282.629C790.316 281.984 789.794 281.461 789.148 281.461C788.503 281.461 787.98 281.984 787.98 282.629C787.98 283.274 788.503 283.797 789.148 283.797Z" fill="white"/>
<path opacity="0.4" d="M641.35 294.113C641.995 294.113 642.518 293.59 642.518 292.945C642.518 292.3 641.995 291.777 641.35 291.777C640.705 291.777 640.182 292.3 640.182 292.945C640.182 293.59 640.705 294.113 641.35 294.113Z" fill="white"/>
<path opacity="0.4" d="M635.896 313.484C636.541 313.484 637.064 312.961 637.064 312.316C637.064 311.671 636.541 311.148 635.896 311.148C635.25 311.148 634.728 311.671 634.728 312.316C634.728 312.961 635.25 313.484 635.896 313.484Z" fill="white"/>
<path opacity="0.4" d="M636.919 362.191C637.564 362.191 638.087 361.668 638.087 361.023C638.087 360.378 637.564 359.855 636.919 359.855C636.274 359.855 635.751 360.378 635.751 361.023C635.751 361.668 636.274 362.191 636.919 362.191Z" fill="white"/>
<path opacity="0.4" d="M775.229 412.797C775.874 412.797 776.397 412.274 776.397 411.629C776.397 410.984 775.874 410.461 775.229 410.461C774.583 410.461 774.061 410.984 774.061 411.629C774.061 412.274 774.583 412.797 775.229 412.797Z" fill="white"/>
<path opacity="0.4" d="M787.154 399.804C787.799 399.804 788.322 399.282 788.322 398.637C788.322 397.992 787.799 397.469 787.154 397.469C786.509 397.469 785.986 397.992 785.986 398.637C785.986 399.282 786.509 399.804 787.154 399.804Z" fill="white"/>
<path opacity="0.4" d="M799.223 391.48C799.868 391.48 800.391 390.957 800.391 390.312C800.391 389.667 799.868 389.145 799.223 389.145C798.578 389.145 798.055 389.667 798.055 390.312C798.055 390.957 798.578 391.48 799.223 391.48Z" fill="white"/>
<path opacity="0.4" d="M824.235 378.683C824.88 378.683 825.403 378.16 825.403 377.516C825.403 376.871 824.88 376.348 824.235 376.348C823.59 376.348 823.067 376.871 823.067 377.516C823.067 378.16 823.59 378.683 824.235 378.683Z" fill="white"/>
<path opacity="0.4" d="M839.712 354.793C840.357 354.793 840.88 354.27 840.88 353.625C840.88 352.98 840.357 352.457 839.712 352.457C839.067 352.457 838.544 352.98 838.544 353.625C838.544 354.27 839.067 354.793 839.712 354.793Z" fill="white"/>
<path opacity="0.4" d="M845.504 330.656C846.149 330.656 846.672 330.133 846.672 329.488C846.672 328.843 846.149 328.32 845.504 328.32C844.859 328.32 844.336 328.843 844.336 329.488C844.336 330.133 844.859 330.656 845.504 330.656Z" fill="white"/>
<path opacity="0.4" d="M847.548 316.644C848.193 316.644 848.716 316.121 848.716 315.476C848.716 314.831 848.193 314.309 847.548 314.309C846.903 314.309 846.38 314.831 846.38 315.476C846.38 316.121 846.903 316.644 847.548 316.644Z" fill="white"/>
<path opacity="0.4" d="M822.29 316.011C822.935 316.011 823.458 315.489 823.458 314.844C823.458 314.199 822.935 313.676 822.29 313.676C821.645 313.676 821.122 314.199 821.122 314.844C821.122 315.489 821.645 316.011 822.29 316.011Z" fill="white"/>
<path opacity="0.4" d="M833.289 289.543C833.934 289.543 834.457 289.02 834.457 288.375C834.457 287.73 833.934 287.207 833.289 287.207C832.644 287.207 832.121 287.73 832.121 288.375C832.121 289.02 832.644 289.543 833.289 289.543Z" fill="white"/>
<path opacity="0.4" d="M836.988 292.07C837.633 292.07 838.156 291.547 838.156 290.902C838.156 290.257 837.633 289.734 836.988 289.734C836.343 289.734 835.82 290.257 835.82 290.902C835.82 291.547 836.343 292.07 836.988 292.07Z" fill="white"/>
<path opacity="0.4" d="M868.083 344.527C868.728 344.527 869.251 344.004 869.251 343.359C869.251 342.714 868.728 342.191 868.083 342.191C867.438 342.191 866.915 342.714 866.915 343.359C866.915 344.004 867.438 344.527 868.083 344.527Z" fill="white"/>
<path opacity="0.4" d="M854.994 369.586C855.639 369.586 856.162 369.063 856.162 368.418C856.162 367.773 855.639 367.25 854.994 367.25C854.349 367.25 853.826 367.773 853.826 368.418C853.826 369.063 854.349 369.586 854.994 369.586Z" fill="white"/>
<path opacity="0.4" d="M852.998 368.125C853.643 368.125 854.166 367.602 854.166 366.957C854.166 366.312 853.643 365.789 852.998 365.789C852.353 365.789 851.83 366.312 851.83 366.957C851.83 367.602 852.353 368.125 852.998 368.125Z" fill="white"/>
<path opacity="0.4" d="M818.785 450.605C819.43 450.605 819.953 450.082 819.953 449.437C819.953 448.792 819.43 448.27 818.785 448.27C818.14 448.27 817.617 448.792 817.617 449.437C817.617 450.082 818.14 450.605 818.785 450.605Z" fill="white"/>
<path opacity="0.88" d="M122.12 46.8021C122.688 46.9228 123.247 46.5603 123.367 45.9926C123.488 45.4248 123.125 44.8666 122.558 44.7459C121.99 44.6252 121.431 44.9876 121.311 45.5554C121.19 46.1232 121.553 46.6813 122.12 46.8021Z" fill="white"/>
<path opacity="0.87" d="M202.236 86.087C202.696 86.1517 203.122 85.8313 203.186 85.3714C203.251 84.9116 202.93 84.4864 202.47 84.4217C202.011 84.3571 201.585 84.6775 201.521 85.1373C201.456 85.5972 201.777 86.0224 202.236 86.087Z" fill="white"/>
<path opacity="0.98" d="M318.327 6.33285C317.909 5.96889 317.274 6.01319 316.91 6.43181C316.546 6.85043 316.591 7.48484 317.009 7.8488C317.428 8.21276 318.063 8.16845 318.426 7.74983C318.79 7.33121 318.746 6.69681 318.327 6.33285Z" fill="white"/>
<path opacity="0.73" d="M88.4812 264.637C87.9179 264.777 87.5751 265.347 87.7155 265.911C87.8559 266.474 88.4265 266.817 88.9898 266.676C89.5531 266.536 89.8959 265.965 89.7555 265.402C89.6151 264.839 89.0446 264.496 88.4812 264.637Z" fill="white"/>
<path opacity="0.76" d="M232.988 197.169C232.84 197.763 233.201 198.366 233.796 198.514C234.39 198.662 234.992 198.3 235.141 197.706C235.289 197.111 234.927 196.509 234.333 196.361C233.738 196.212 233.136 196.574 232.988 197.169Z" fill="white"/>
<path opacity="0.84" d="M293.575 260.868C293.655 261.371 294.127 261.715 294.63 261.635C295.134 261.555 295.477 261.083 295.397 260.579C295.318 260.076 294.845 259.733 294.342 259.812C293.838 259.892 293.495 260.365 293.575 260.868Z" fill="white"/>
<path opacity="0.83" d="M96.2706 331.427C96.8708 331.863 97.7107 331.73 98.1467 331.13C98.5826 330.53 98.4495 329.69 97.8494 329.254C97.2492 328.818 96.4093 328.951 95.9733 329.551C95.5373 330.151 95.6704 330.991 96.2706 331.427Z" fill="white"/>
<path opacity="0.89" d="M213.003 310.877C212.529 310.402 211.76 310.402 211.285 310.876C210.811 311.351 210.811 312.12 211.286 312.594C211.76 313.069 212.529 313.069 213.003 312.594C213.478 312.12 213.478 311.351 213.003 310.877Z" fill="white"/>
<path opacity="0.88" d="M113.379 100.487C112.737 100.759 112.438 101.5 112.71 102.141C112.982 102.782 113.723 103.082 114.364 102.809C115.006 102.537 115.305 101.797 115.033 101.155C114.76 100.514 114.02 100.215 113.379 100.487Z" fill="white"/>
<path opacity="0.97" d="M349.894 69.8886C349.397 69.5532 348.722 69.6844 348.386 70.1816C348.051 70.6789 348.182 71.354 348.68 71.6894C349.177 72.0249 349.852 71.8938 350.187 71.3965C350.523 70.8992 350.392 70.2241 349.894 69.8886Z" fill="white"/>
<path opacity="0.82" d="M735.264 85.3905C736.004 85.3387 736.562 84.697 736.51 83.957C736.458 83.2171 735.816 82.6592 735.076 82.711C734.336 82.7627 733.778 83.4045 733.83 84.1444C733.882 84.8843 734.524 85.4422 735.264 85.3905Z" fill="white"/>
<path opacity="0.97" d="M238.758 230.647C238.731 231.42 239.337 232.069 240.11 232.096C240.884 232.123 241.532 231.518 241.559 230.745C241.586 229.971 240.981 229.322 240.208 229.295C239.434 229.268 238.785 229.873 238.758 230.647Z" fill="white"/>
<path opacity="0.78" d="M522.437 258.748C522.659 258.378 522.54 257.897 522.169 257.675C521.799 257.452 521.318 257.572 521.095 257.942C520.873 258.313 520.993 258.794 521.363 259.016C521.733 259.239 522.214 259.119 522.437 258.748Z" fill="white"/>
<path opacity="0.98" d="M786.16 210.309C786.584 210.137 786.789 209.654 786.618 209.23C786.446 208.805 785.963 208.6 785.538 208.771C785.114 208.943 784.909 209.426 785.08 209.851C785.252 210.275 785.735 210.481 786.16 210.309Z" fill="white"/>
<path opacity="0.96" d="M90.6826 397.875C90.807 398.581 91.4794 399.051 92.1844 398.927C92.8895 398.803 93.3602 398.13 93.2359 397.425C93.1115 396.72 92.4392 396.249 91.7341 396.374C91.0291 396.498 90.5583 397.17 90.6826 397.875Z" fill="white"/>
<path opacity="0.8" d="M365.684 529.052C365.157 528.901 364.607 529.206 364.456 529.733C364.305 530.26 364.609 530.81 365.136 530.961C365.664 531.112 366.213 530.807 366.364 530.28C366.516 529.753 366.211 529.203 365.684 529.052Z" fill="white"/>
<path opacity="0.83" d="M578.706 506.145C578.422 505.707 577.836 505.582 577.398 505.867C576.959 506.151 576.835 506.737 577.119 507.175C577.404 507.614 577.99 507.738 578.428 507.454C578.866 507.169 578.991 506.583 578.706 506.145Z" fill="white"/>
<path opacity="0.74" d="M149.19 47.2266C148.53 47.1339 147.921 47.5931 147.828 48.2523C147.736 48.9114 148.195 49.5208 148.854 49.6135C149.513 49.7061 150.123 49.2469 150.216 48.5878C150.308 47.9286 149.849 47.3192 149.19 47.2266Z" fill="white"/>
<path opacity="0.84" d="M408.084 17.0751C408.398 17.449 408.956 17.4979 409.329 17.1841C409.703 16.8704 409.752 16.3128 409.438 15.9389C409.125 15.5649 408.567 15.5161 408.193 15.8298C407.819 16.1436 407.77 16.7011 408.084 17.0751Z" fill="white"/>
<path opacity="0.81" d="M744.334 62.106C743.998 61.7065 743.403 61.6543 743.003 61.9895C742.604 62.3246 742.552 62.9202 742.887 63.3196C743.222 63.7191 743.818 63.7713 744.217 63.4361C744.617 63.101 744.669 62.5055 744.334 62.106Z" fill="white"/>
<path opacity="0.94" d="M247.587 317.244C247.44 317.591 247.602 317.992 247.949 318.139C248.296 318.286 248.697 318.124 248.844 317.777C248.992 317.43 248.83 317.029 248.483 316.882C248.135 316.734 247.735 316.896 247.587 317.244Z" fill="white"/>
<path opacity="0.86" d="M511.676 200.086C511.429 199.758 510.963 199.693 510.635 199.94C510.308 200.187 510.242 200.653 510.489 200.981C510.736 201.308 511.202 201.374 511.53 201.127C511.858 200.88 511.923 200.414 511.676 200.086Z" fill="white"/>
<path opacity="0.86" d="M727.301 357.389C727.024 357.785 727.12 358.33 727.515 358.606C727.91 358.883 728.455 358.787 728.732 358.392C729.009 357.996 728.913 357.451 728.518 357.175C728.122 356.898 727.577 356.994 727.301 357.389Z" fill="white"/>
<path opacity="0.79" d="M148.466 483.205C147.96 483.39 147.699 483.949 147.883 484.454C148.067 484.96 148.627 485.22 149.132 485.036C149.638 484.852 149.899 484.293 149.715 483.788C149.531 483.282 148.972 483.021 148.466 483.205Z" fill="white"/>
<path opacity="0.85" d="M526.824 446.916C526.448 447.107 526.299 447.567 526.49 447.943C526.682 448.318 527.141 448.468 527.517 448.276C527.893 448.085 528.042 447.625 527.851 447.25C527.659 446.874 527.2 446.725 526.824 446.916Z" fill="white"/>
<path opacity="0.74" d="M571.887 478.688C571.581 478.879 571.488 479.282 571.679 479.588C571.871 479.893 572.273 479.986 572.579 479.795C572.885 479.604 572.978 479.201 572.787 478.896C572.596 478.59 572.193 478.497 571.887 478.688Z" fill="white"/>
<path d="M848.955 360.492C849.738 360.492 850.373 359.857 850.373 359.074C850.373 358.291 849.738 357.656 848.955 357.656C848.172 357.656 847.537 358.291 847.537 359.074C847.537 359.857 848.172 360.492 848.955 360.492Z" fill="white"/>
<path d="M630.584 362.195C631.367 362.195 632.002 361.687 632.002 361.06C632.002 360.434 631.367 359.926 630.584 359.926C629.801 359.926 629.166 360.434 629.166 361.06C629.166 361.687 629.801 362.195 630.584 362.195Z" fill="white"/>
<path d="M576.415 360.492C577.041 360.492 577.549 359.857 577.549 359.074C577.549 358.291 577.041 357.656 576.415 357.656C575.788 357.656 575.28 358.291 575.28 359.074C575.28 359.857 575.788 360.492 576.415 360.492Z" fill="white"/>
<path d="M423.926 56.2303C424.267 55.7931 424.19 55.1619 423.753 54.8204C423.316 54.4789 422.685 54.5564 422.343 54.9936C422.001 55.4308 422.079 56.062 422.516 56.4035C422.953 56.745 423.584 56.6674 423.926 56.2303Z" fill="white"/>
<path opacity="0.7" d="M815.887 242.731C815.422 243.284 815.494 244.109 816.048 244.574C816.601 245.038 817.426 244.966 817.891 244.412C818.355 243.859 818.283 243.034 817.729 242.569C817.176 242.105 816.351 242.177 815.887 242.731Z" fill="white"/>
<path opacity="0.73" d="M1345.09 5.30891C1345.16 4.64812 1344.68 4.05616 1344.02 3.98672C1343.36 3.91728 1342.77 4.39665 1342.7 5.05744C1342.63 5.71822 1343.11 6.3102 1343.77 6.37964C1344.43 6.44908 1345.02 5.96969 1345.09 5.30891Z" fill="white"/>
<path opacity="0.93" d="M267.018 483.586C266.754 483.068 266.121 482.863 265.604 483.126C265.087 483.39 264.881 484.023 265.145 484.54C265.408 485.057 266.041 485.263 266.559 484.999C267.076 484.736 267.281 484.103 267.018 483.586Z" fill="white"/>
<path opacity="0.78" d="M625.803 481.764C625.556 481.449 625.101 481.393 624.786 481.639C624.471 481.886 624.415 482.341 624.662 482.656C624.908 482.971 625.363 483.027 625.678 482.781C625.993 482.535 626.049 482.08 625.803 481.764Z" fill="white"/>
<path opacity="0.86" d="M424.999 625.339C424.251 625.512 423.785 626.258 423.957 627.006C424.13 627.753 424.876 628.22 425.624 628.047C426.372 627.874 426.839 627.128 426.666 626.38C426.493 625.632 425.747 625.166 424.999 625.339Z" fill="white"/>
<path opacity="0.9" d="M16.1441 284.5C15.8201 284.219 15.3291 284.253 15.0474 284.577C14.7658 284.901 14.8002 285.392 15.1242 285.674C15.4482 285.955 15.9393 285.921 16.2209 285.597C16.5025 285.273 16.4682 284.782 16.1441 284.5Z" fill="white"/>
<path opacity="0.89" d="M39.3821 258.224C39.6136 258.896 40.3463 259.254 41.0186 259.022C41.6909 258.791 42.0482 258.058 41.8167 257.385C41.5851 256.713 40.8525 256.356 40.1802 256.587C39.5079 256.819 39.1506 257.551 39.3821 258.224Z" fill="white"/>
<path d="M64.9801 71.34C65.6964 71.036 66.0307 70.2088 65.7267 69.4926C65.4226 68.7764 64.5955 68.4422 63.8791 68.7463C63.1628 69.0504 62.8285 69.8775 63.1325 70.5937C63.4365 71.31 64.2637 71.6441 64.9801 71.34Z" fill="white"/>
<path opacity="0.95" d="M108.493 62.7977C107.965 62.7515 107.499 63.142 107.453 63.6699C107.407 64.1977 107.797 64.6631 108.325 64.7093C108.853 64.7555 109.319 64.365 109.365 63.8371C109.411 63.3092 109.02 62.8438 108.493 62.7977Z" fill="white"/>
<path opacity="0.73" d="M122.6 225.224C122.107 225.284 121.757 225.733 121.817 226.225C121.877 226.718 122.326 227.068 122.819 227.008C123.311 226.947 123.662 226.499 123.601 226.006C123.541 225.514 123.092 225.163 122.6 225.224Z" fill="white"/>
<path opacity="0.99" d="M156.584 115.937C156.241 116.268 156.232 116.813 156.563 117.156C156.893 117.499 157.439 117.508 157.782 117.177C158.125 116.846 158.134 116.3 157.803 115.958C157.472 115.615 156.927 115.606 156.584 115.937Z" fill="white"/>
<path opacity="0.88" d="M187.75 1.69703C187.645 2.29164 188.042 2.85865 188.637 2.96348C189.231 3.06831 189.798 2.67127 189.903 2.07666C190.008 1.48204 189.611 0.915018 189.016 0.810187C188.422 0.705356 187.855 1.10242 187.75 1.69703Z" fill="white"/>
<path opacity="0.81" d="M206.833 241.031C206.314 241.17 206.007 241.702 206.146 242.221C206.284 242.739 206.817 243.047 207.336 242.908C207.854 242.769 208.162 242.236 208.023 241.718C207.884 241.199 207.351 240.892 206.833 241.031Z" fill="white"/>
<path d="M242.607 143.204C243.31 143.241 243.911 142.7 243.947 141.997C243.984 141.294 243.444 140.693 242.741 140.657C242.037 140.62 241.437 141.16 241.4 141.863C241.363 142.567 241.904 143.167 242.607 143.204Z" fill="white"/>
<path opacity="0.78" d="M266.74 156.77C266.206 156.41 265.481 156.551 265.121 157.085C264.761 157.618 264.902 158.343 265.436 158.703C265.969 159.064 266.694 158.923 267.054 158.389C267.414 157.855 267.273 157.13 266.74 156.77Z" fill="white"/>
<path opacity="0.86" d="M275.451 1.90071C275.304 1.4477 274.817 1.19977 274.364 1.34694C273.911 1.49411 273.663 1.98065 273.811 2.43365C273.958 2.88666 274.444 3.1346 274.897 2.98743C275.35 2.84026 275.598 2.35372 275.451 1.90071Z" fill="white"/>
<path opacity="0.99" d="M307.235 27.7937C306.849 28.0252 306.725 28.5251 306.956 28.9104C307.188 29.2956 307.688 29.4202 308.073 29.1887C308.458 28.9572 308.583 28.4572 308.351 28.072C308.12 27.6868 307.62 27.5622 307.235 27.7937Z" fill="white"/>
<path opacity="0.7" d="M340.067 280.107C340.007 280.599 340.357 281.048 340.85 281.108C341.342 281.169 341.791 280.819 341.851 280.326C341.912 279.833 341.562 279.385 341.069 279.324C340.576 279.264 340.128 279.614 340.067 280.107Z" fill="white"/>
<path opacity="0.85" d="M377.26 62.8387C377.558 63.2352 378.122 63.3145 378.518 63.0157C378.915 62.717 378.994 62.1534 378.695 61.757C378.397 61.3605 377.833 61.2812 377.437 61.58C377.04 61.8787 376.961 62.4423 377.26 62.8387Z" fill="white"/>
<path opacity="0.92" d="M403.262 123.794C402.886 123.143 402.054 122.92 401.403 123.295C400.753 123.671 400.53 124.503 400.906 125.154C401.281 125.805 402.113 126.028 402.764 125.652C403.415 125.276 403.637 124.444 403.262 123.794Z" fill="white"/>
<path opacity="0.73" d="M435.708 172.561C436.075 172.073 435.978 171.38 435.491 171.013C435.003 170.645 434.31 170.743 433.943 171.23C433.575 171.718 433.673 172.411 434.16 172.778C434.648 173.146 435.341 173.048 435.708 172.561Z" fill="white"/>
<path opacity="0.85" d="M447.678 203.87C446.982 204.151 446.645 204.944 446.927 205.641C447.208 206.337 448.001 206.674 448.698 206.392C449.394 206.111 449.731 205.318 449.449 204.622C449.168 203.925 448.375 203.589 447.678 203.87Z" fill="white"/>
<path opacity="0.79" d="M468.589 265.996C468.571 266.486 468.954 266.896 469.444 266.913C469.933 266.93 470.344 266.548 470.361 266.058C470.378 265.569 469.995 265.158 469.506 265.141C469.016 265.124 468.606 265.507 468.589 265.996Z" fill="white"/>
<path opacity="0.77" d="M504.716 240.352C504.249 240.013 503.596 240.116 503.257 240.583C502.918 241.05 503.021 241.703 503.488 242.042C503.955 242.381 504.608 242.278 504.947 241.811C505.286 241.345 505.183 240.691 504.716 240.352Z" fill="white"/>
<path opacity="0.8" d="M536.67 173.292C536.67 173.942 537.198 174.47 537.848 174.47C538.499 174.47 539.026 173.942 539.026 173.292C539.026 172.641 538.499 172.113 537.848 172.113C537.198 172.113 536.67 172.641 536.67 173.292Z" fill="white"/>
<path d="M558.113 46.338C557.866 45.7575 557.196 45.4866 556.616 45.733C556.035 45.9794 555.764 46.6497 556.011 47.2302C556.257 47.8107 556.928 48.0815 557.508 47.8352C558.088 47.5888 558.359 46.9185 558.113 46.338Z" fill="white"/>
<path opacity="0.93" d="M588.261 251.98C588.674 252.156 589.152 251.963 589.328 251.549C589.503 251.135 589.31 250.658 588.897 250.482C588.483 250.306 588.005 250.499 587.83 250.913C587.654 251.327 587.847 251.805 588.261 251.98Z" fill="white"/>
<path opacity="0.99" d="M605.821 96.1018C606.546 96.1909 607.207 95.6749 607.296 94.9492C607.385 94.2235 606.869 93.563 606.143 93.4739C605.417 93.3847 604.757 93.9008 604.668 94.6265C604.579 95.3522 605.095 96.0127 605.821 96.1018Z" fill="white"/>
<path opacity="0.99" d="M651.348 81.2542C651.152 80.7911 650.617 80.575 650.154 80.7715C649.691 80.9681 649.475 81.5029 649.671 81.9661C649.868 82.4292 650.403 82.6453 650.866 82.4488C651.329 82.2522 651.545 81.7174 651.348 81.2542Z" fill="white"/>
<path opacity="0.98" d="M665.529 285.607C666.1 285.803 666.722 285.5 666.919 284.929C667.115 284.358 666.812 283.736 666.241 283.54C665.67 283.343 665.048 283.646 664.851 284.217C664.655 284.788 664.958 285.41 665.529 285.607Z" fill="white"/>
<path opacity="0.89" d="M700.756 118.774C701.171 118.745 701.484 118.385 701.455 117.97C701.426 117.555 701.066 117.243 700.651 117.272C700.236 117.301 699.923 117.661 699.952 118.075C699.981 118.49 700.341 118.803 700.756 118.774Z" fill="white"/>
<path opacity="0.86" d="M723.059 279.454C722.37 279.6 721.93 280.278 722.077 280.967C722.223 281.655 722.9 282.095 723.589 281.949C724.278 281.802 724.718 281.125 724.572 280.436C724.425 279.747 723.748 279.308 723.059 279.454Z" fill="white"/>
<path opacity="0.81" d="M756.794 81.2369C756.643 80.6731 756.064 80.3386 755.5 80.4896C754.936 80.6406 754.602 81.2201 754.753 81.7839C754.904 82.3476 755.483 82.6822 756.047 82.5312C756.611 82.3802 756.945 81.8007 756.794 81.2369Z" fill="white"/>
<path opacity="0.86" d="M782.061 194.186C781.698 194.669 781.794 195.354 782.276 195.717C782.758 196.081 783.444 195.984 783.807 195.502C784.17 195.02 784.074 194.334 783.592 193.971C783.11 193.608 782.424 193.704 782.061 194.186Z" fill="white"/>
<path opacity="0.88" d="M799.218 229.134C799.002 229.558 799.171 230.078 799.595 230.294C800.019 230.51 800.539 230.341 800.755 229.917C800.971 229.492 800.802 228.973 800.378 228.757C799.954 228.541 799.435 228.71 799.218 229.134Z" fill="white"/>
<path opacity="0.71" d="M844.511 166.622C845.168 166.835 845.874 166.476 846.087 165.818C846.301 165.161 845.941 164.456 845.284 164.242C844.627 164.029 843.921 164.388 843.707 165.045C843.494 165.702 843.853 166.408 844.511 166.622Z" fill="white"/>
<path opacity="0.83" d="M867.085 12.5235C866.348 12.4848 865.719 13.0508 865.68 13.7877C865.642 14.5245 866.208 15.1532 866.945 15.1918C867.682 15.2304 868.311 14.6644 868.349 13.9276C868.388 13.1907 867.822 12.5621 867.085 12.5235Z" fill="white"/>
<path opacity="0.78" d="M871.5 235.653C871.036 236.028 870.965 236.709 871.341 237.173C871.716 237.637 872.397 237.708 872.861 237.333C873.325 236.957 873.397 236.276 873.021 235.812C872.645 235.348 871.964 235.277 871.5 235.653Z" fill="white"/>
<path opacity="0.72" d="M924.133 54.7573C923.986 54.0682 923.309 53.6284 922.62 53.7748C921.931 53.9213 921.492 54.5985 921.638 55.2876C921.785 55.9766 922.462 56.4164 923.151 56.27C923.84 56.1236 924.279 55.4463 924.133 54.7573Z" fill="white"/>
<path opacity="0.83" d="M939.417 103.777C938.837 104.086 938.616 104.807 938.925 105.387C939.234 105.968 939.954 106.188 940.535 105.879C941.115 105.571 941.336 104.85 941.027 104.269C940.719 103.689 939.998 103.469 939.417 103.777Z" fill="white"/>
<path opacity="0.85" d="M967.654 245.096C967.654 245.612 968.073 246.031 968.589 246.031C969.106 246.031 969.524 245.612 969.524 245.096C969.524 244.579 969.106 244.16 968.589 244.16C968.073 244.16 967.654 244.579 967.654 245.096Z" fill="white"/>
<path d="M984.118 211.829C984.621 212.45 985.531 212.545 986.151 212.043C986.772 211.541 986.867 210.631 986.365 210.01C985.862 209.39 984.952 209.294 984.332 209.796C983.712 210.299 983.616 211.209 984.118 211.829Z" fill="white"/>
<path opacity="0.87" d="M1011.37 73.3394C1011.62 73.8192 1012.22 74.0013 1012.7 73.7463C1013.18 73.4912 1013.36 72.8954 1013.1 72.4156C1012.85 71.9358 1012.25 71.7537 1011.77 72.0087C1011.29 72.2638 1011.11 72.8596 1011.37 73.3394Z" fill="white"/>
<path opacity="0.88" d="M1051.03 235.066C1050.5 235.236 1050.22 235.798 1050.39 236.321C1050.56 236.844 1051.12 237.13 1051.64 236.96C1052.16 236.79 1052.45 236.228 1052.28 235.705C1052.11 235.182 1051.55 234.896 1051.03 235.066Z" fill="white"/>
<path opacity="0.96" d="M1062.02 184.784C1061.86 185.464 1062.29 186.142 1062.97 186.299C1063.65 186.456 1064.32 186.032 1064.48 185.352C1064.64 184.672 1064.21 183.994 1063.53 183.837C1062.86 183.68 1062.18 184.104 1062.02 184.784Z" fill="white"/>
<path opacity="0.73" d="M1091.95 188.005C1092.4 188.434 1093.1 188.421 1093.53 187.978C1093.96 187.534 1093.95 186.826 1093.5 186.397C1093.06 185.969 1092.35 185.981 1091.92 186.425C1091.5 186.869 1091.51 187.576 1091.95 188.005Z" fill="white"/>
<path opacity="0.77" d="M1145.12 248.917C1145.39 248.511 1145.29 247.959 1144.88 247.686C1144.48 247.412 1143.92 247.519 1143.65 247.925C1143.38 248.331 1143.48 248.882 1143.89 249.156C1144.3 249.43 1144.85 249.323 1145.12 248.917Z" fill="white"/>
<path opacity="0.75" d="M1166.02 259.478C1166.27 259.14 1166.21 258.66 1165.87 258.406C1165.53 258.152 1165.05 258.219 1164.8 258.557C1164.54 258.894 1164.61 259.374 1164.95 259.628C1165.29 259.883 1165.77 259.815 1166.02 259.478Z" fill="white"/>
<path opacity="0.78" d="M1182.89 4.93371C1183.63 5.20446 1184.45 4.821 1184.72 4.07722C1184.99 3.33344 1184.61 2.511 1183.87 2.24025C1183.12 1.96949 1182.3 2.35295 1182.03 3.09673C1181.76 3.84051 1182.14 4.66295 1182.89 4.93371Z" fill="white"/>
<path opacity="0.93" d="M1222.29 287.02C1221.79 286.405 1220.89 286.31 1220.27 286.808C1219.66 287.306 1219.56 288.208 1220.06 288.824C1220.56 289.439 1221.46 289.534 1222.08 289.036C1222.69 288.537 1222.79 287.635 1222.29 287.02Z" fill="white"/>
<path d="M1232.97 28.7941C1233.45 29.0843 1234.08 28.9281 1234.37 28.4451C1234.66 27.9621 1234.5 27.3353 1234.02 27.0451C1233.53 26.7548 1232.91 26.9111 1232.62 27.394C1232.33 27.877 1232.48 28.5038 1232.97 28.7941Z" fill="white"/>
<path opacity="0.87" d="M1272.33 214.149C1271.92 213.736 1271.25 213.736 1270.84 214.149C1270.43 214.562 1270.43 215.231 1270.84 215.643C1271.25 216.056 1271.92 216.056 1272.33 215.643C1272.75 215.231 1272.75 214.562 1272.33 214.149Z" fill="white"/>
<path opacity="0.9" d="M1296.7 215.838C1297.1 215.572 1297.2 215.036 1296.93 214.641C1296.67 214.246 1296.13 214.142 1295.74 214.408C1295.34 214.675 1295.24 215.211 1295.5 215.606C1295.77 216 1296.31 216.104 1296.7 215.838Z" fill="white"/>
<path opacity="0.87" d="M1329.49 250.609C1329.4 250.21 1329 249.961 1328.6 250.053C1328.2 250.145 1327.96 250.543 1328.05 250.942C1328.14 251.341 1328.54 251.589 1328.94 251.497C1329.33 251.405 1329.58 251.007 1329.49 250.609Z" fill="white"/>
<path opacity="0.99" d="M1351.98 73.3167C1352.32 73.6057 1352.83 73.5608 1353.12 73.2165C1353.41 72.8723 1353.37 72.3589 1353.02 72.07C1352.68 71.7811 1352.16 71.826 1351.88 72.1702C1351.59 72.5145 1351.63 73.0278 1351.98 73.3167Z" fill="white"/>
<path opacity="0.88" d="M1366.61 214.966C1367.1 215.272 1367.74 215.123 1368.05 214.634C1368.35 214.144 1368.2 213.5 1367.71 213.194C1367.22 212.888 1366.58 213.037 1366.27 213.526C1365.97 214.016 1366.12 214.66 1366.61 214.966Z" fill="white"/>
<path opacity="0.97" d="M1400.66 245.228C1400.31 244.872 1399.73 244.872 1399.38 245.228C1399.02 245.583 1399.02 246.16 1399.38 246.516C1399.73 246.872 1400.31 246.872 1400.66 246.516C1401.02 246.16 1401.02 245.584 1400.66 245.228Z" fill="white"/>
<path opacity="0.9" d="M1439.73 41.3835C1439.87 41.8661 1440.42 42.1597 1440.97 42.0394C1441.52 41.9191 1441.85 41.4304 1441.71 40.9479C1441.58 40.4654 1441.02 40.1717 1440.48 40.292C1439.93 40.4123 1439.6 40.901 1439.73 41.3835Z" fill="white"/>
<path opacity="0.77" d="M1.60859 531.056C1.00067 530.916 0.394098 531.295 0.253769 531.903C0.11344 532.511 0.492497 533.117 1.10042 533.258C1.70834 533.398 2.31493 533.019 2.45526 532.411C2.59559 531.803 2.21652 531.197 1.60859 531.056Z" fill="white"/>
<path opacity="0.95" d="M27.4442 413.922C27.5038 414.49 28.0118 414.901 28.5788 414.841C29.1458 414.782 29.5572 414.274 29.4976 413.707C29.438 413.139 28.93 412.728 28.3629 412.788C27.7959 412.847 27.3846 413.355 27.4442 413.922Z" fill="white"/>
<path opacity="0.71" d="M83.5832 417.448C83.2264 417.066 82.6269 417.045 82.2442 417.402C81.8616 417.758 81.8407 418.358 82.1976 418.741C82.5544 419.123 83.1539 419.144 83.5366 418.788C83.9192 418.431 83.9401 417.831 83.5832 417.448Z" fill="white"/>
<path opacity="0.7" d="M106.294 299.838C106.401 300.302 106.864 300.591 107.328 300.484C107.792 300.377 108.081 299.914 107.974 299.45C107.867 298.986 107.404 298.696 106.94 298.803C106.476 298.91 106.187 299.374 106.294 299.838Z" fill="white"/>
<path d="M131.879 332.569C131.58 332.858 131.571 333.334 131.86 333.634C132.149 333.933 132.626 333.941 132.925 333.652C133.224 333.363 133.233 332.886 132.944 332.587C132.655 332.288 132.178 332.28 131.879 332.569Z" fill="white"/>
<path opacity="0.91" d="M138.246 340.863C138.557 341.197 139.08 341.215 139.413 340.904C139.747 340.593 139.765 340.071 139.454 339.737C139.143 339.403 138.62 339.385 138.287 339.696C137.953 340.007 137.935 340.53 138.246 340.863Z" fill="white"/>
<path opacity="0.96" d="M189.8 411.203C190.021 411.602 190.523 411.746 190.922 411.525C191.321 411.304 191.465 410.801 191.244 410.402C191.023 410.003 190.52 409.859 190.121 410.08C189.722 410.301 189.578 410.804 189.8 411.203Z" fill="white"/>
<path opacity="0.8" d="M214.692 491.419C215.056 491.901 215.741 491.998 216.223 491.635C216.705 491.271 216.802 490.586 216.438 490.104C216.075 489.621 215.389 489.525 214.907 489.888C214.425 490.252 214.329 490.937 214.692 491.419Z" fill="white"/>
<path opacity="0.85" d="M235.202 449.852C234.515 450.203 234.241 451.044 234.591 451.731C234.942 452.418 235.783 452.691 236.47 452.341C237.158 451.991 237.431 451.15 237.081 450.463C236.731 449.775 235.889 449.502 235.202 449.852Z" fill="white"/>
<path opacity="0.74" d="M246.985 401.728C246.565 401.906 246.369 402.391 246.547 402.811C246.725 403.231 247.21 403.427 247.63 403.249C248.05 403.07 248.246 402.585 248.068 402.166C247.89 401.746 247.405 401.55 246.985 401.728Z" fill="white"/>
<path opacity="0.78" d="M280.939 474.04C280.497 473.581 279.766 473.568 279.308 474.011C278.849 474.454 278.837 475.184 279.279 475.643C279.722 476.101 280.453 476.114 280.911 475.671C281.369 475.228 281.382 474.498 280.939 474.04Z" fill="white"/>
<path opacity="0.96" d="M309.549 322.597C308.966 322.504 308.418 322.902 308.326 323.485C308.234 324.068 308.632 324.615 309.215 324.708C309.798 324.8 310.345 324.402 310.438 323.819C310.53 323.236 310.132 322.689 309.549 322.597Z" fill="white"/>
<path opacity="0.87" d="M342.222 313.216C342.328 313.612 342.735 313.846 343.13 313.74C343.525 313.635 343.76 313.228 343.654 312.833C343.548 312.438 343.142 312.203 342.746 312.309C342.351 312.415 342.117 312.821 342.222 313.216Z" fill="white"/>
<path opacity="0.94" d="M364.191 308.824C364.657 308.975 365.157 308.72 365.308 308.255C365.46 307.789 365.205 307.289 364.739 307.137C364.273 306.986 363.773 307.241 363.622 307.707C363.47 308.172 363.725 308.672 364.191 308.824Z" fill="white"/>
<path opacity="0.9" d="M388.1 369.123C388.842 369.28 389.57 368.807 389.728 368.066C389.886 367.324 389.412 366.595 388.671 366.438C387.929 366.28 387.2 366.753 387.043 367.495C386.885 368.236 387.359 368.965 388.1 369.123Z" fill="white"/>
<path opacity="0.77" d="M410.539 400.921C410.155 401.413 410.242 402.123 410.734 402.507C411.225 402.891 411.935 402.804 412.319 402.312C412.703 401.82 412.616 401.111 412.125 400.726C411.633 400.342 410.923 400.43 410.539 400.921Z" fill="white"/>
<path opacity="0.99" d="M460.028 490.955C459.449 490.578 458.674 490.743 458.298 491.322C457.921 491.902 458.086 492.677 458.666 493.053C459.245 493.429 460.02 493.265 460.396 492.685C460.772 492.106 460.608 491.331 460.028 490.955Z" fill="white"/>
<path opacity="0.79" d="M491.453 480.633C491.134 480.252 490.567 480.203 490.187 480.522C489.807 480.841 489.757 481.408 490.076 481.788C490.396 482.168 490.963 482.218 491.343 481.899C491.723 481.58 491.773 481.013 491.453 480.633Z" fill="white"/>
<path opacity="0.79" d="M510.55 545.228C511.256 545.315 511.898 544.813 511.985 544.107C512.072 543.402 511.57 542.759 510.864 542.673C510.158 542.586 509.516 543.088 509.429 543.793C509.342 544.499 509.844 545.142 510.55 545.228Z" fill="white"/>
<path opacity="0.77" d="M531.468 427.485C531.831 427.889 532.453 427.922 532.857 427.558C533.261 427.195 533.293 426.573 532.93 426.169C532.566 425.765 531.944 425.732 531.54 426.096C531.137 426.459 531.104 427.081 531.468 427.485Z" fill="white"/>
<path opacity="0.7" d="M551.293 304.606C551.883 305.083 552.747 304.993 553.224 304.404C553.701 303.815 553.61 302.95 553.021 302.473C552.432 301.996 551.567 302.087 551.09 302.676C550.613 303.265 550.704 304.129 551.293 304.606Z" fill="white"/>
<path opacity="0.7" d="M582.973 512.542C583.573 513.028 584.452 512.935 584.938 512.336C585.423 511.736 585.331 510.857 584.731 510.371C584.132 509.886 583.252 509.978 582.767 510.578C582.281 511.177 582.374 512.057 582.973 512.542Z" fill="white"/>
<path opacity="0.82" d="M604.312 559.246C603.806 559.55 603.642 560.206 603.946 560.712C604.25 561.218 604.907 561.382 605.413 561.078C605.919 560.774 606.083 560.117 605.779 559.611C605.475 559.105 604.818 558.942 604.312 559.246Z" fill="white"/>
<path opacity="0.98" d="M640.21 517.544C640.241 516.955 639.788 516.452 639.199 516.421C638.609 516.39 638.106 516.843 638.075 517.432C638.045 518.022 638.497 518.525 639.087 518.556C639.676 518.587 640.179 518.134 640.21 517.544Z" fill="white"/>
<path opacity="0.8" d="M670.215 515.564C669.954 516.124 670.196 516.789 670.756 517.05C671.315 517.31 671.98 517.068 672.241 516.509C672.501 515.95 672.259 515.285 671.7 515.024C671.141 514.763 670.476 515.005 670.215 515.564Z" fill="white"/>
<path opacity="0.73" d="M692.596 415.676C692.534 414.968 691.91 414.444 691.202 414.506C690.493 414.568 689.969 415.192 690.031 415.901C690.093 416.609 690.718 417.133 691.426 417.071C692.134 417.009 692.658 416.385 692.596 415.676Z" fill="white"/>
<path opacity="0.77" d="M713.648 332.668C713.056 332.353 712.32 332.578 712.005 333.17C711.69 333.762 711.915 334.498 712.508 334.813C713.1 335.127 713.835 334.903 714.15 334.31C714.465 333.718 714.24 332.983 713.648 332.668Z" fill="white"/>
<path opacity="0.96" d="M757.917 364.212C758.389 363.857 758.483 363.187 758.128 362.715C757.773 362.244 757.103 362.15 756.631 362.505C756.16 362.86 756.065 363.531 756.421 364.002C756.776 364.473 757.446 364.568 757.917 364.212Z" fill="white"/>
<path opacity="0.83" d="M781.657 375.246C782.361 375.545 783.174 375.217 783.472 374.513C783.771 373.809 783.443 372.996 782.739 372.697C782.035 372.399 781.222 372.727 780.923 373.431C780.624 374.135 780.953 374.948 781.657 375.246Z" fill="white"/>
<path opacity="0.97" d="M802.722 385.86C802.773 386.28 803.155 386.578 803.575 386.526C803.994 386.475 804.292 386.093 804.241 385.674C804.189 385.254 803.807 384.956 803.388 385.007C802.969 385.059 802.67 385.441 802.722 385.86Z" fill="white"/>
<path opacity="0.72" d="M822.236 578.168C822.641 577.568 822.482 576.752 821.882 576.347C821.281 575.942 820.466 576.101 820.061 576.701C819.656 577.302 819.814 578.117 820.415 578.523C821.015 578.928 821.831 578.769 822.236 578.168Z" fill="white"/>
<path opacity="0.72" d="M868.959 359.6C868.25 359.886 867.907 360.693 868.194 361.402C868.48 362.111 869.287 362.454 869.996 362.167C870.705 361.881 871.048 361.074 870.762 360.365C870.475 359.656 869.668 359.313 868.959 359.6Z" fill="white"/>
<path opacity="0.89" d="M880.841 308.256C880.527 307.993 880.06 308.034 879.797 308.347C879.534 308.66 879.575 309.128 879.888 309.391C880.202 309.654 880.669 309.613 880.932 309.3C881.195 308.986 881.154 308.519 880.841 308.256Z" fill="white"/>
<path opacity="0.97" d="M903.865 554.145C903.281 554.69 903.249 555.604 903.793 556.188C904.338 556.772 905.252 556.804 905.836 556.259C906.42 555.715 906.452 554.8 905.908 554.216C905.363 553.633 904.449 553.601 903.865 554.145Z" fill="white"/>
<path opacity="0.79" d="M933.014 454.783C932.415 454.363 931.59 454.509 931.17 455.108C930.751 455.707 930.896 456.532 931.495 456.951C932.094 457.371 932.92 457.225 933.339 456.627C933.759 456.028 933.613 455.202 933.014 454.783Z" fill="white"/>
<path opacity="0.73" d="M974.591 412.142C974.202 411.791 973.603 411.823 973.253 412.212C972.903 412.6 972.934 413.199 973.323 413.55C973.712 413.9 974.311 413.868 974.661 413.48C975.011 413.091 974.98 412.492 974.591 412.142Z" fill="white"/>
<path opacity="0.89" d="M979.125 333.798C978.988 334.441 979.399 335.074 980.042 335.21C980.685 335.347 981.317 334.936 981.454 334.293C981.59 333.65 981.18 333.018 980.537 332.881C979.894 332.745 979.262 333.155 979.125 333.798Z" fill="white"/>
<path opacity="0.92" d="M1015.24 535.47C1014.72 535.941 1014.67 536.748 1015.15 537.271C1015.62 537.794 1016.42 537.837 1016.95 537.365C1017.47 536.894 1017.51 536.087 1017.04 535.564C1016.57 535.041 1015.76 534.998 1015.24 535.47Z" fill="white"/>
<path opacity="0.84" d="M1039.68 548.318C1039.45 547.831 1038.87 547.621 1038.39 547.847C1037.9 548.074 1037.69 548.652 1037.92 549.139C1038.14 549.625 1038.72 549.836 1039.21 549.609C1039.7 549.382 1039.91 548.804 1039.68 548.318Z" fill="white"/>
<path opacity="0.83" d="M1076.71 499.276C1077.18 498.909 1077.26 498.229 1076.89 497.759C1076.53 497.288 1075.85 497.205 1075.38 497.573C1074.9 497.94 1074.82 498.62 1075.19 499.09C1075.56 499.561 1076.24 499.644 1076.71 499.276Z" fill="white"/>
<path opacity="0.74" d="M1109.56 466.795C1109.45 466.228 1108.9 465.858 1108.34 465.968C1107.77 466.079 1107.4 466.627 1107.51 467.193C1107.62 467.76 1108.17 468.13 1108.74 468.019C1109.3 467.909 1109.67 467.361 1109.56 466.795Z" fill="white"/>
<path opacity="0.83" d="M1124.6 313.011C1123.99 313.065 1123.54 313.601 1123.59 314.209C1123.65 314.817 1124.18 315.267 1124.79 315.214C1125.4 315.16 1125.85 314.624 1125.8 314.016C1125.74 313.408 1125.21 312.958 1124.6 313.011Z" fill="white"/>
<path opacity="0.93" d="M1167.36 535.362C1167.44 535.811 1167.87 536.111 1168.31 536.032C1168.76 535.953 1169.06 535.524 1168.98 535.075C1168.91 534.626 1168.48 534.326 1168.03 534.405C1167.58 534.484 1167.28 534.913 1167.36 535.362Z" fill="white"/>
<path opacity="0.91" d="M1182.92 378.035C1182.77 377.436 1182.16 377.072 1181.56 377.221C1180.96 377.37 1180.6 377.977 1180.75 378.576C1180.9 379.175 1181.5 379.539 1182.1 379.39C1182.7 379.241 1183.06 378.634 1182.92 378.035Z" fill="white"/>
<path opacity="0.88" d="M1218.57 319.307C1218.15 319.139 1217.68 319.34 1217.51 319.757C1217.34 320.174 1217.54 320.648 1217.96 320.816C1218.37 320.985 1218.85 320.783 1219.02 320.367C1219.19 319.95 1218.98 319.476 1218.57 319.307Z" fill="white"/>
<path opacity="0.83" d="M1236.01 396.02C1235.63 395.867 1235.2 396.05 1235.05 396.43C1234.89 396.809 1235.08 397.241 1235.46 397.394C1235.84 397.548 1236.27 397.364 1236.42 396.985C1236.58 396.606 1236.39 396.174 1236.01 396.02Z" fill="white"/>
<path opacity="0.77" d="M1266.3 366.918C1266.3 367.34 1266.65 367.683 1267.07 367.683C1267.49 367.683 1267.83 367.34 1267.83 366.918C1267.83 366.495 1267.49 366.152 1267.07 366.152C1266.65 366.152 1266.3 366.495 1266.3 366.918Z" fill="white"/>
<path opacity="0.97" d="M1304.43 521.26C1305 520.814 1305.1 519.989 1304.65 519.418C1304.21 518.847 1303.38 518.746 1302.81 519.192C1302.24 519.638 1302.14 520.463 1302.58 521.034C1303.03 521.605 1303.85 521.706 1304.43 521.26Z" fill="white"/>
<path opacity="0.98" d="M1334.12 402.494C1334.42 402.055 1334.32 401.449 1333.88 401.141C1333.44 400.833 1332.83 400.94 1332.52 401.38C1332.22 401.819 1332.32 402.425 1332.76 402.733C1333.2 403.041 1333.81 402.934 1334.12 402.494Z" fill="white"/>
<path opacity="0.83" d="M1346.97 427.285C1347.61 427.444 1348.26 427.056 1348.42 426.418C1348.58 425.781 1348.19 425.135 1347.55 424.975C1346.91 424.816 1346.27 425.205 1346.11 425.842C1345.95 426.48 1346.34 427.126 1346.97 427.285Z" fill="white"/>
<path d="M1367.29 454.058C1366.95 453.552 1366.26 453.419 1365.76 453.76C1365.25 454.101 1365.12 454.788 1365.46 455.295C1365.8 455.801 1366.49 455.934 1366.99 455.593C1367.5 455.252 1367.63 454.565 1367.29 454.058Z" fill="white"/>
<path opacity="0.85" d="M1393.96 393.899C1394.2 394.239 1394.67 394.322 1395.01 394.084C1395.35 393.845 1395.44 393.376 1395.2 393.035C1394.96 392.694 1394.49 392.611 1394.15 392.85C1393.81 393.088 1393.73 393.558 1393.96 393.899Z" fill="white"/>
<path opacity="0.75" d="M1427.31 426.331C1427.6 426.655 1428.1 426.681 1428.43 426.389C1428.75 426.098 1428.78 425.598 1428.49 425.274C1428.19 424.95 1427.69 424.924 1427.37 425.216C1427.05 425.507 1427.02 426.007 1427.31 426.331Z" fill="white"/>
<path opacity="0.78" d="M21.7206 730.612C21.7348 730.203 21.4149 729.86 21.006 729.846C20.5971 729.831 20.254 730.151 20.2397 730.56C20.2254 730.969 20.5454 731.312 20.9543 731.327C21.3632 731.341 21.7063 731.021 21.7206 730.612Z" fill="white"/>
<path opacity="0.78" d="M54.2286 679.825C54.7187 679.429 54.7943 678.71 54.3975 678.22C54.0007 677.73 53.2818 677.654 52.7917 678.051C52.3016 678.448 52.226 679.167 52.6228 679.657C53.0196 680.147 53.7385 680.222 54.2286 679.825Z" fill="white"/>
<path opacity="0.89" d="M97.3026 655.262C97.5841 654.565 97.2476 653.772 96.551 653.491C95.8545 653.209 95.0616 653.546 94.7802 654.242C94.4987 654.939 94.8352 655.732 95.5317 656.013C96.2283 656.295 97.0212 655.958 97.3026 655.262Z" fill="white"/>
<path opacity="0.86" d="M132.048 602.526C131.628 601.879 130.762 601.695 130.116 602.115C129.469 602.535 129.285 603.4 129.705 604.047C130.125 604.694 130.99 604.878 131.637 604.458C132.284 604.038 132.468 603.173 132.048 602.526Z" fill="white"/>
<path opacity="0.94" d="M165.071 678.968C164.507 679.378 164.382 680.168 164.792 680.733C165.202 681.297 165.992 681.422 166.556 681.012C167.121 680.602 167.246 679.812 166.836 679.248C166.426 678.683 165.636 678.558 165.071 678.968Z" fill="white"/>
<path opacity="0.75" d="M208.163 741.237C208.191 740.453 207.577 739.795 206.793 739.767C206.008 739.74 205.35 740.354 205.323 741.138C205.296 741.923 205.909 742.581 206.694 742.608C207.478 742.636 208.136 742.022 208.163 741.237Z" fill="white"/>
<path opacity="0.95" d="M287.605 690.088C288.201 690.588 289.09 690.51 289.59 689.914C290.09 689.318 290.012 688.429 289.416 687.929C288.82 687.429 287.931 687.507 287.431 688.103C286.931 688.699 287.009 689.587 287.605 690.088Z" fill="white"/>
<path opacity="0.89" d="M336.878 745.456C336.791 744.743 336.142 744.237 335.43 744.324C334.718 744.411 334.211 745.06 334.299 745.772C334.386 746.485 335.035 746.992 335.747 746.904C336.459 746.817 336.966 746.168 336.878 745.456Z" fill="white"/>
<path opacity="0.75" d="M356.798 677.019C356.457 677.565 356.623 678.284 357.169 678.626C357.715 678.967 358.434 678.801 358.776 678.255C359.117 677.708 358.951 676.989 358.405 676.648C357.859 676.307 357.139 676.473 356.798 677.019Z" fill="white"/>
<path opacity="0.98" d="M380.977 742.261C381.204 742.885 381.894 743.207 382.518 742.98C383.142 742.753 383.464 742.063 383.237 741.439C383.009 740.815 382.319 740.493 381.695 740.72C381.071 740.947 380.75 741.637 380.977 742.261Z" fill="white"/>
<path opacity="0.94" d="M435.614 651.814C435.555 651.139 434.96 650.64 434.286 650.699C433.611 650.758 433.111 651.353 433.17 652.028C433.229 652.703 433.824 653.202 434.499 653.143C435.174 653.084 435.674 652.489 435.614 651.814Z" fill="white"/>
<path opacity="0.93" d="M437.855 735.923C437.953 736.62 438.598 737.106 439.295 737.008C439.993 736.91 440.479 736.265 440.381 735.568C440.283 734.87 439.638 734.384 438.94 734.482C438.243 734.58 437.757 735.225 437.855 735.923Z" fill="white"/>
<path opacity="0.99" d="M474.259 636.287C474.089 635.549 473.352 635.088 472.613 635.259C471.875 635.429 471.414 636.166 471.585 636.905C471.755 637.643 472.492 638.104 473.231 637.933C473.969 637.763 474.43 637.026 474.259 636.287Z" fill="white"/>
<path opacity="0.85" d="M524.956 702.452C524.406 702.539 524.031 703.055 524.118 703.605C524.205 704.155 524.722 704.53 525.272 704.443C525.822 704.356 526.197 703.839 526.11 703.289C526.023 702.74 525.506 702.364 524.956 702.452Z" fill="white"/>
<path opacity="0.99" d="M664.391 591.096C664.081 591.374 664.056 591.85 664.335 592.159C664.613 592.468 665.089 592.493 665.398 592.215C665.707 591.937 665.732 591.46 665.454 591.151C665.176 590.842 664.7 590.817 664.391 591.096Z" fill="white"/>
<path d="M819.244 697.008C819.221 696.351 818.67 695.837 818.013 695.86C817.356 695.883 816.842 696.434 816.865 697.092C816.888 697.749 817.439 698.263 818.096 698.24C818.753 698.217 819.267 697.666 819.244 697.008Z" fill="white"/>
<path opacity="0.97" d="M869.069 697.389C868.711 697.613 868.602 698.085 868.826 698.443C869.05 698.802 869.522 698.911 869.88 698.687C870.239 698.463 870.348 697.991 870.124 697.632C869.9 697.274 869.428 697.165 869.069 697.389Z" fill="white"/>
<path opacity="0.75" d="M891.878 691.02C892.116 691.509 892.705 691.712 893.193 691.473C893.682 691.235 893.884 690.646 893.646 690.158C893.408 689.669 892.819 689.467 892.331 689.705C891.842 689.943 891.64 690.532 891.878 691.02Z" fill="white"/>
<path opacity="0.77" d="M922.364 725.008C922.019 724.709 921.498 724.745 921.198 725.09C920.899 725.434 920.936 725.956 921.28 726.255C921.624 726.554 922.146 726.518 922.445 726.174C922.744 725.829 922.708 725.308 922.364 725.008Z" fill="white"/>
<path opacity="0.77" d="M934.262 750.225C933.654 750.7 933.547 751.578 934.021 752.186C934.496 752.794 935.374 752.901 935.982 752.426C936.59 751.951 936.698 751.074 936.223 750.466C935.748 749.858 934.87 749.75 934.262 750.225Z" fill="white"/>
<path opacity="0.91" d="M965.793 622.919C965.643 622.217 964.953 621.768 964.251 621.918C963.549 622.067 963.101 622.757 963.25 623.459C963.4 624.161 964.09 624.609 964.792 624.46C965.494 624.311 965.942 623.621 965.793 622.919Z" fill="white"/>
<path opacity="0.92" d="M1029.19 614.575C1029.6 615.186 1030.43 615.348 1031.04 614.935C1031.65 614.523 1031.81 613.692 1031.4 613.08C1030.99 612.469 1030.16 612.307 1029.55 612.72C1028.93 613.132 1028.77 613.963 1029.19 614.575Z" fill="white"/>
<path opacity="0.95" d="M1073.43 654.324C1072.88 654.768 1072.79 655.571 1073.24 656.118C1073.68 656.666 1074.48 656.75 1075.03 656.307C1075.58 655.863 1075.66 655.06 1075.22 654.513C1074.78 653.965 1073.97 653.881 1073.43 654.324Z" fill="white"/>
<path opacity="0.8" d="M1165.63 624.508C1165.88 623.867 1165.57 623.138 1164.93 622.879C1164.29 622.62 1163.56 622.93 1163.31 623.57C1163.05 624.211 1163.36 624.94 1164 625.199C1164.64 625.458 1165.37 625.148 1165.63 624.508Z" fill="white"/>
<path opacity="0.97" d="M1177.27 608.614C1178.02 608.575 1178.59 607.935 1178.55 607.185C1178.51 606.435 1177.87 605.858 1177.12 605.898C1176.37 605.937 1175.8 606.577 1175.84 607.327C1175.88 608.077 1176.52 608.654 1177.27 608.614Z" fill="white"/>
<path opacity="0.98" d="M1262.53 749.77C1262.79 750.329 1263.45 750.571 1264.01 750.31C1264.57 750.05 1264.82 749.385 1264.55 748.825C1264.29 748.266 1263.63 748.024 1263.07 748.285C1262.51 748.546 1262.27 749.21 1262.53 749.77Z" fill="white"/>
<path opacity="0.92" d="M1346.61 735.886C1346.49 735.35 1345.95 735.016 1345.42 735.14C1344.88 735.263 1344.55 735.798 1344.67 736.334C1344.79 736.87 1345.33 737.204 1345.86 737.081C1346.4 736.957 1346.73 736.422 1346.61 735.886Z" fill="white"/>
<path opacity="0.86" d="M1374.14 747.718C1374.68 747.832 1375.21 747.489 1375.32 746.951C1375.44 746.413 1375.1 745.884 1374.56 745.77C1374.02 745.655 1373.49 745.999 1373.38 746.537C1373.26 747.075 1373.61 747.604 1374.14 747.718Z" fill="white"/>
<path opacity="0.82" d="M1405.97 738.148C1406.23 737.673 1406.06 737.074 1405.59 736.811C1405.11 736.547 1404.51 736.719 1404.25 737.194C1403.99 737.669 1404.16 738.268 1404.63 738.532C1405.11 738.795 1405.71 738.623 1405.97 738.148Z" fill="white"/>
<path opacity="0.77" d="M1440.72 744.587C1441.33 744.479 1441.74 743.893 1441.64 743.279C1441.53 742.664 1440.94 742.254 1440.33 742.362C1439.71 742.471 1439.3 743.057 1439.41 743.671C1439.52 744.285 1440.11 744.695 1440.72 744.587Z" fill="white"/>
</svg>
