<svg width="26" height="22" viewBox="0 0 26 22" fill="none" xmlns="http://www.w3.org/2000/svg">
<path d="M25.5 20.3346C25.5 21.072 24.94 21.668 24.25 21.668L8 21.668C7.31 21.668 6.75 21.072 6.75 20.3346C6.75 19.5973 7.31 19.0013 8 19.0013L24.25 19.0013C24.94 19.0013 25.5 19.5973 25.5 20.3346ZM1.75 12.3346L24.25 12.3346C24.94 12.3346 25.5 11.7386 25.5 11.0013C25.5 10.264 24.94 9.66797 24.25 9.66797L1.75 9.66797C1.06 9.66797 0.499999 10.264 0.499999 11.0013C0.499999 11.7386 1.06 12.3346 1.75 12.3346ZM13 3.0013L24.25 3.0013C24.94 3.0013 25.5 2.4053 25.5 1.66797C25.5 0.930637 24.94 0.334637 24.25 0.334637L13 0.334636C12.31 0.334636 11.75 0.930636 11.75 1.66797C11.75 2.4053 12.31 3.0013 13 3.0013Z" fill="black"/>
</svg>
