<svg width="143" height="50" viewBox="0 0 143 50" fill="none" xmlns="http://www.w3.org/2000/svg">
<path fill-rule="evenodd" clip-rule="evenodd" d="M134.79 1.93834L134.341 6.11322V8.49887V10.6609L134.491 14.5375V14.7612H133.668L133.518 13.3447L133.369 12.3755L133.144 11.4064L132.77 10.139L132.322 9.02073L131.723 7.90245L131.05 6.78418L129.928 5.44226L129.031 4.54764L127.984 3.80212L126.563 2.90751L125.067 2.23654L124.02 1.86379L122.599 1.56558L121.627 1.41648H120.355H118.859L117.588 1.49103L116.242 1.71468L114.895 2.23654L113.624 2.7584L112.876 3.13116L111.979 3.80212L111.231 4.32398L110.558 4.9204L109.66 5.66591L108.987 6.41142L108.314 7.30604L107.641 8.27521L107.117 8.94617L106.594 9.91534L105.995 11.0336L105.547 12.1519L105.098 13.4193L104.724 14.5375L104.425 15.3576L104.126 16.7741L103.901 17.7432L103.602 18.8615L103.378 20.1289L103.228 22.1418V24.2292L103.378 26.6894L103.527 28.3295L103.752 29.746L104.2 31.908L104.572 33.2825H97.258L97.1701 33.1008L96.6465 31.5353L96.1978 29.746L95.8238 27.7331L95.5994 26.1676L95.5247 24.1547V22.0672L95.6742 20.5016L95.9734 18.7124L96.1978 17.7432L96.7213 15.954L97.4692 14.2393L98.3667 12.301L99.1894 10.9591L99.9373 9.84079L101.209 8.20066L102.181 7.15694L103.378 6.03867L104.425 5.14405L105.322 4.47309L106.295 3.80212L107.117 3.28026L108.09 2.7584L109.137 2.31109L110.558 1.64013L111.979 1.11827L113.774 0.670963L115.718 0.298206L117.812 0.0745514L119.682 0L122.449 0.149103L124.693 0.596412L127.086 1.34193L128.881 2.23654L130.751 3.20571L132.546 4.24943L134.191 2.01289L134.79 1.93834ZM136.51 33.2825V32.8772L136.66 32.1317L136.959 31.2371L137.333 30.4915L137.557 30.1188L138.081 29.5969L138.679 29.2242L139.277 29.0005L140.025 28.7769L140.848 28.7023H141.596H142.119V27.9568H123.721V28.7023H124.095H125.067L126.189 28.8514L127.386 29.2242L128.208 29.746L128.732 30.2679L129.181 30.9389L129.554 31.908L129.779 32.6535L129.876 33.2825H136.51Z" fill="white"/>
<path fill-rule="evenodd" clip-rule="evenodd" d="M54.852 33.2822L43.4504 6.57867V33.2822H42.2687V5.97816L42.1948 5.45272L42.121 4.85221L41.9733 4.32676L41.7517 3.95145L41.4563 3.57613L41.087 3.20081L40.57 2.75043L39.9792 2.45017L39.2407 2.30005L38.576 2.22498H37.9113H37.025V2.14992V1.32422H48.8418L62.2978 33.2822H54.852ZM76.7588 33.2822V5.45272L65.6556 33.2822H64.2785L76.9065 1.47435H88.6494V1.99979L87.9847 2.07486L86.8769 2.22498L86.1383 2.37511L85.4736 2.67536L84.9566 2.97562L84.3658 3.50106L84.0704 3.95145L83.7011 4.70208L83.5534 5.22753V33.2822H76.7588Z" fill="white"/>
<path fill-rule="evenodd" clip-rule="evenodd" d="M13.5914 0H12.5246L-0.000976562 33.2825H1.43546L3.38049 28.17H17.4015L17.4777 28.3222L19.43 33.2825H26.4234L13.5914 0ZM16.9762 26.6213H3.66342L10.4711 7.9834L16.9762 26.6213Z" fill="white"/>
<path d="M2.47597 45.9453L5.28234 39.3816H5.96295L8.76932 45.9453H7.92089L7.08177 43.9687H4.10758L3.27779 45.9453H2.47597ZM5.59934 40.4351L4.42458 43.2229H6.7741L5.59934 40.4351ZM17.0307 39.4189V43.2229C17.0307 44.1614 16.7913 44.8638 16.3127 45.33C15.8341 45.7961 15.2312 46.0292 14.504 46.0292C13.6897 46.0292 13.034 45.7837 12.5367 45.2927C12.0457 44.7954 11.8002 44.0837 11.8002 43.1576V39.4189H12.5927V43.0084C12.5927 43.7232 12.7574 44.2826 13.0868 44.6866C13.4225 45.0844 13.8949 45.2833 14.504 45.2833C15.051 45.2833 15.4767 45.0969 15.7813 44.7239C16.0859 44.3448 16.2382 43.7916 16.2382 43.0644V39.4189H17.0307ZM25.8411 39.4189L23.5289 42.6262L25.925 45.9453H24.9834L23.0068 43.2322L21.0395 45.9453H20.1072L22.5033 42.6262L20.2097 39.4189H21.1421L23.0348 42.0295L24.8995 39.4189H25.8411Z" fill="white"/>
<path d="M33.9318 45.9453V39.4189H34.7337L37.1857 42.766L39.5353 39.4189H40.2905V45.9453H39.498V40.6682L37.1857 43.9128H37.0645L34.7243 40.6962V45.9453H33.9318ZM44.4357 45.9453V39.4189H48.1185V40.1648H45.2282V42.2719H47.8388V43.0177H45.2282V45.1994H48.2117V45.9453H44.4357ZM51.9895 45.9453V39.4189H52.1014C52.2382 39.4189 52.5023 39.4158 52.8939 39.4096C53.2917 39.3971 53.5838 39.3909 53.7703 39.3909C54.4043 39.3909 54.9606 39.4779 55.4392 39.652C55.9178 39.8198 56.3001 40.056 56.586 40.3605C56.8719 40.6589 57.0833 40.9977 57.22 41.3768C57.363 41.7497 57.4344 42.1569 57.4344 42.5982C57.4344 43.574 57.1081 44.379 56.4555 45.013C55.8091 45.647 54.8891 45.964 53.6957 45.964C53.559 45.964 53.3041 45.9609 52.9312 45.9546C52.5645 45.9484 52.2848 45.9453 52.0921 45.9453H51.9895ZM53.7517 40.1368C53.6336 40.1368 53.5217 40.1399 53.416 40.1461C53.3104 40.1461 53.1954 40.1492 53.0711 40.1554C52.953 40.1616 52.8566 40.1648 52.782 40.1648V45.1994C53.3539 45.2119 53.6678 45.2181 53.7237 45.2181C54.6312 45.2181 55.3367 44.9788 55.8401 44.5002C56.3436 44.0154 56.5953 43.3814 56.5953 42.5982C56.5953 41.8647 56.3498 41.2711 55.8588 40.8174C55.3677 40.3637 54.6654 40.1368 53.7517 40.1368ZM61.2595 45.9453V39.4189H62.052V45.9453H61.2595ZM70.9276 44.7146L71.2446 45.3113C71.027 45.5351 70.7318 45.7122 70.3588 45.8428C69.9859 45.9733 69.5943 46.0385 69.1841 46.0385C68.202 46.0385 67.4033 45.734 66.7879 45.1248C66.1788 44.5095 65.8742 43.6952 65.8742 42.6821C65.8742 41.7187 66.1664 40.92 66.7506 40.286C67.3411 39.6457 68.1336 39.3256 69.1281 39.3256C69.961 39.3256 70.623 39.537 71.114 39.9596L70.7504 40.5563C70.3153 40.2331 69.7777 40.0715 69.1375 40.0715C68.4289 40.0715 67.8477 40.3139 67.394 40.7988C66.9402 41.2836 66.7133 41.9114 66.7133 42.6821C66.7133 43.4591 66.9464 44.0899 67.4126 44.5748C67.885 45.0534 68.5003 45.2927 69.2587 45.2927C69.8989 45.2927 70.4552 45.1 70.9276 44.7146ZM73.7482 45.9453L76.5546 39.3816H77.2352L80.0416 45.9453H79.1931L78.354 43.9687H75.3798L74.55 45.9453H73.7482ZM76.8716 40.4351L75.6968 43.2229H78.0463L76.8716 40.4351ZM83.3521 45.9453V39.4189H84.1446V45.1994H87.3612V45.9453H83.3521Z" fill="white"/>
<path d="M96.5712 43.372V42.6262H99.0792V45.1342C98.7995 45.4139 98.4297 45.6345 97.9697 45.7961C97.5098 45.9577 97.0654 46.0385 96.6365 46.0385C95.6233 46.0385 94.8184 45.734 94.2217 45.1248C93.625 44.5157 93.3266 43.7015 93.3266 42.6821C93.3266 41.7249 93.6219 40.9262 94.2124 40.286C94.8029 39.6457 95.5767 39.3256 96.5339 39.3256C97.3668 39.3256 98.0505 39.537 98.5851 39.9596L98.2401 40.5936C97.8548 40.2456 97.3171 40.0715 96.6272 40.0715C95.8937 40.0715 95.3001 40.3108 94.8464 40.7894C94.3926 41.268 94.1658 41.8989 94.1658 42.6821C94.1658 43.4715 94.3926 44.1055 94.8464 44.5841C95.3063 45.0565 95.9093 45.2927 96.6551 45.2927C96.9659 45.2927 97.2798 45.2398 97.5968 45.1342C97.9138 45.0223 98.1593 44.8824 98.3334 44.7146V43.372H96.5712ZM103.597 45.9453H102.805V39.4189C102.941 39.4189 103.255 39.4158 103.746 39.4096C104.237 39.4033 104.508 39.4002 104.557 39.4002C106.105 39.4002 106.879 40.0467 106.879 41.3395C106.879 41.8181 106.739 42.2221 106.459 42.5516C106.186 42.8748 105.853 43.0861 105.462 43.1856L107.634 45.9453H106.664L104.66 43.3347H103.597V45.9453ZM104.511 40.1461C104.312 40.1461 104.007 40.1523 103.597 40.1648V42.5889H104.557C104.955 42.5889 105.3 42.477 105.592 42.2532C105.891 42.0232 106.04 41.7218 106.04 41.3488C106.04 40.547 105.53 40.1461 104.511 40.1461ZM110.219 42.6821C110.219 41.7311 110.533 40.9355 111.161 40.2953C111.788 39.6489 112.584 39.3256 113.547 39.3256C114.505 39.3256 115.297 39.6395 115.925 40.2673C116.559 40.8951 116.876 41.7 116.876 42.6821C116.876 43.6455 116.559 44.4473 115.925 45.0876C115.291 45.7215 114.498 46.0385 113.547 46.0385C112.59 46.0385 111.795 45.7247 111.161 45.0969C110.533 44.4691 110.219 43.6642 110.219 42.6821ZM111.058 42.6821C111.058 43.4218 111.297 44.0433 111.776 44.5468C112.255 45.044 112.845 45.2927 113.547 45.2927C114.281 45.2927 114.878 45.044 115.337 44.5468C115.804 44.0495 116.037 43.428 116.037 42.6821C116.037 41.93 115.797 41.3084 115.319 40.8174C114.84 40.3201 114.25 40.0715 113.547 40.0715C112.833 40.0715 112.239 40.317 111.767 40.8081C111.294 41.2991 111.058 41.9238 111.058 42.6821ZM125.653 39.4189V43.2229C125.653 44.1614 125.414 44.8638 124.936 45.33C124.457 45.7961 123.854 46.0292 123.127 46.0292C122.313 46.0292 121.657 45.7837 121.16 45.2927C120.669 44.7954 120.423 44.0837 120.423 43.1576V39.4189H121.216V43.0084C121.216 43.7232 121.38 44.2826 121.71 44.6866C122.045 45.0844 122.518 45.2833 123.127 45.2833C123.674 45.2833 124.1 45.0969 124.404 44.7239C124.709 44.3448 124.861 43.7916 124.861 43.0644V39.4189H125.653ZM130.501 45.9453H129.709V39.4189C129.827 39.4189 130.104 39.4158 130.539 39.4096C130.98 39.4033 131.272 39.4002 131.415 39.4002C132.273 39.4002 132.888 39.5929 133.261 39.9783C133.64 40.3574 133.83 40.8392 133.83 41.4234C133.83 41.9953 133.625 42.4801 133.215 42.8779C132.811 43.2757 132.233 43.4746 131.48 43.4746C131.12 43.4746 130.794 43.4622 130.501 43.4373V45.9453ZM131.49 40.1461C131.241 40.1461 130.912 40.1523 130.501 40.1648V42.6821C130.856 42.7132 131.173 42.7287 131.452 42.7287C131.931 42.7287 132.307 42.6137 132.581 42.3837C132.854 42.1475 132.991 41.8243 132.991 41.4141C132.991 41.0163 132.867 40.7055 132.618 40.4818C132.369 40.258 131.993 40.1461 131.49 40.1461Z" fill="white"/>
</svg>
