<svg width="20" height="20" viewBox="0 0 20 20" fill="none" xmlns="http://www.w3.org/2000/svg">
<path d="M19.7068 18.293L15.1678 13.754C16.3108 12.306 16.9998 10.483 16.9998 8.5C16.9998 3.813 13.1868 0 8.49989 0C3.81295 0 0 3.813 0 8.5C0 13.187 3.81295 17 8.49989 17C10.4839 17 12.3058 16.312 13.7538 15.168L18.2928 19.707C18.4878 19.902 18.7438 20 18.9998 20C19.2558 20 19.5118 19.902 19.7068 19.707C20.0977 19.316 20.0977 18.684 19.7068 18.293ZM1.99997 8.5C1.99997 4.916 4.91594 2 8.49989 2C12.0838 2 14.9998 4.916 14.9998 8.5C14.9998 12.084 12.0838 15 8.49989 15C4.91594 15 1.99997 12.084 1.99997 8.5Z" fill="#0CA984"/>
</svg>
