<svg width="16" height="14" viewBox="0 0 16 14" fill="none" xmlns="http://www.w3.org/2000/svg">
<path d="M12.1668 0.75H3.8335C1.76683 0.75 0.0834961 2.43333 0.0834961 4.5H15.9168C15.9168 2.43333 14.2335 0.75 12.1668 0.75ZM0.0834961 6.16667V9.5C0.0834961 11.5667 1.76683 13.25 3.8335 13.25H12.1668C14.2335 13.25 15.9168 11.5667 15.9168 9.5V6.16667H0.0834961ZM6.3335 10.3333H3.8335C3.37516 10.3333 3.00016 9.95833 3.00016 9.5C3.00016 9.04167 3.37516 8.66667 3.8335 8.66667H6.3335C6.79183 8.66667 7.16683 9.04167 7.16683 9.5C7.16683 9.95833 6.79183 10.3333 6.3335 10.3333Z" fill="white"/>
</svg>
