<svg width="36" height="46" viewBox="0 0 36 46" fill="none" xmlns="http://www.w3.org/2000/svg">
<path d="M35.3977 11.6605C35.7023 11.9652 35.875 12.3766 35.875 12.8082V44.125C35.875 45.0238 35.1488 45.75 34.25 45.75H1.75C0.851172 45.75 0.125 45.0238 0.125 44.125V1.875C0.125 0.976172 0.851172 0.25 1.75 0.25H23.3168C23.7484 0.25 24.1648 0.422656 24.4695 0.727344L35.3977 11.6605ZM32.1273 13.5547L22.5703 3.99766V13.5547H32.1273ZM24.1557 29.3609C23.3848 29.3355 22.5652 29.3949 21.6344 29.5112C20.4004 28.75 19.5696 27.7044 18.9796 26.1682L19.0339 25.9458L19.0969 25.6828C19.3152 24.7621 19.4325 24.0903 19.4676 23.4129C19.494 22.9015 19.4655 22.4297 19.3746 21.9925C19.2071 21.0485 18.5393 20.4965 17.6979 20.4625C16.9133 20.4305 16.1922 20.8687 16.0079 21.5477C15.7077 22.6455 15.8834 24.0903 16.5197 26.5542C15.7093 28.4864 14.6383 30.7518 13.9197 32.0152C12.9605 32.5098 12.2135 32.9597 11.5858 33.4584C10.7581 34.117 10.2411 34.7939 10.0989 35.5049C10.0299 35.8345 10.134 36.2651 10.3711 36.618C10.6403 37.0182 11.0455 37.2782 11.5315 37.3157C12.7579 37.4107 14.265 36.1463 15.9291 33.2908C16.0962 33.235 16.2729 33.1761 16.4888 33.1029L17.093 32.8988C17.4754 32.7698 17.7527 32.6774 18.0269 32.5885C19.2152 32.2016 20.114 31.9573 20.9316 31.8182C22.3525 32.5789 23.9947 33.0775 25.1007 33.0775C26.0138 33.0775 26.6308 32.6043 26.8537 31.8593C27.0492 31.2052 26.8943 30.4466 26.4739 30.0271C26.0392 29.6 25.2399 29.3959 24.1557 29.3609ZM11.5625 35.8822V35.8639L11.5691 35.8466C11.6434 35.6546 11.7387 35.4713 11.8534 35.3002C12.0708 34.9661 12.3699 34.6147 12.7406 34.2404C12.9396 34.0398 13.1468 33.8443 13.3901 33.625C13.4444 33.5762 13.7918 33.267 13.8568 33.206L14.424 32.6779L14.0116 33.3345C13.386 34.3318 12.8203 35.0499 12.3359 35.5181C12.1576 35.6907 12.0007 35.8177 11.8737 35.8995C11.8318 35.9274 11.7875 35.9516 11.7412 35.9716C11.7204 35.9802 11.7021 35.9853 11.6838 35.9868C11.6645 35.9893 11.6449 35.9866 11.627 35.9792C11.6078 35.9712 11.5915 35.9577 11.58 35.9404C11.5686 35.9232 11.5625 35.9029 11.5625 35.8822ZM17.9579 24.7977L17.8431 25.0008L17.772 24.7784C17.6146 24.2792 17.4988 23.5271 17.4668 22.8487C17.4302 22.0768 17.4917 21.6137 17.7354 21.6137C18.0777 21.6137 18.2346 22.1621 18.2468 22.9873C18.258 23.7125 18.1437 24.4671 17.9573 24.7977H17.9579ZM17.6628 27.7663L17.7405 27.5607L17.8466 27.7536C18.4403 28.8322 19.2106 29.7321 20.0577 30.3592L20.2405 30.4943L20.0175 30.54C19.1883 30.7116 18.4159 30.9696 17.3596 31.3957C17.4698 31.351 16.2618 31.8456 15.9561 31.9629L15.6895 32.065L15.8316 31.8171C16.4588 30.7254 17.0382 29.4142 17.6623 27.7663H17.6628ZM25.667 31.6389C25.2678 31.7963 24.4086 31.6557 22.8958 31.0097L22.5119 30.8462L22.9283 30.8157C24.1115 30.7279 24.9494 30.7929 25.4379 30.9716C25.6461 31.0478 25.7848 31.1438 25.8462 31.2535C25.8785 31.3054 25.8894 31.3679 25.8765 31.4277C25.8636 31.4875 25.828 31.5399 25.7771 31.5739C25.7449 31.6023 25.7075 31.6244 25.667 31.6389Z" fill="black"/>
</svg>
