<svg width="13" height="16" viewBox="0 0 13 16" fill="none" xmlns="http://www.w3.org/2000/svg">
<path d="M12.5239 3.9L8.9375 0.457126C8.63037 0.162286 8.2225 0 7.78862 0H4.0625C1.82244 0 0 1.74954 0 3.9V11.7C0 13.8505 1.82244 15.6 4.0625 15.6H8.9375C11.1776 15.6 13 13.8505 13 11.7V5.00287C13 4.59259 12.8269 4.19016 12.5239 3.9ZM8.9375 2.66287L10.2261 3.9H10.1562C9.48431 3.9 8.9375 3.37506 8.9375 2.73V2.66287ZM8.9375 14.04H4.0625C2.71863 14.04 1.625 12.9901 1.625 11.7V3.9C1.625 2.60988 2.71863 1.56 4.0625 1.56H7.3125V2.73C7.3125 4.2354 8.58813 5.46 10.1562 5.46H11.375V11.7C11.375 12.9901 10.2814 14.04 8.9375 14.04Z" fill="#6B6C74"/>
</svg>
