<svg width="18" height="18" viewBox="0 0 18 18" fill="none" xmlns="http://www.w3.org/2000/svg">
<path d="M13.1665 0.667969H4.83317C2.53567 0.667969 0.666504 2.53714 0.666504 4.83464V13.168C0.666504 15.4655 2.53567 17.3346 4.83317 17.3346H13.1665C15.464 17.3346 17.3332 15.4655 17.3332 13.168V4.83464C17.3332 2.53714 15.464 0.667969 13.1665 0.667969ZM15.6665 8.16797H13.9998V6.5013H15.6665V8.16797ZM3.99984 8.16797H2.33317V6.5013H3.99984V8.16797ZM2.33317 9.83464H3.99984V11.5013H2.33317V9.83464ZM13.9998 9.83464H15.6665V11.5013H13.9998V9.83464ZM15.6665 4.83464H13.9998V2.48804C14.9673 2.83304 15.6665 3.74964 15.6665 4.83464ZM3.99984 2.48804V4.83464H2.33317C2.33317 3.74964 3.03234 2.83304 3.99984 2.48804ZM2.33317 13.168H3.99984V15.5146C3.03234 15.1696 2.33317 14.253 2.33317 13.168ZM13.9998 15.5146V13.168H15.6665C15.6665 14.253 14.9673 15.1696 13.9998 15.5146Z" fill="white"/>
</svg>
