<svg width="14" height="14" viewBox="0 0 14 14" fill="none" xmlns="http://www.w3.org/2000/svg">
<path d="M7.28907 5.04965C6.07387 5.04965 5.08217 6.04134 5.08217 7.25655C5.08217 8.47175 6.07387 9.46344 7.28907 9.46344C8.50427 9.46344 9.49597 8.47175 9.49597 7.25655C9.49597 6.04134 8.50427 5.04965 7.28907 5.04965ZM13.9081 7.25655C13.9081 6.34266 13.9164 5.43706 13.8651 4.52483C13.8137 3.46525 13.572 2.52488 12.7972 1.75006C12.0207 0.973593 11.082 0.733533 10.0224 0.68221C9.10856 0.630886 8.20295 0.639164 7.29072 0.639164C6.37684 0.639164 5.47123 0.630886 4.55901 0.68221C3.49943 0.733533 2.55906 0.975248 1.78424 1.75006C1.00777 2.52653 0.767712 3.46525 0.716389 4.52483C0.665066 5.43871 0.673344 6.34432 0.673344 7.25655C0.673344 8.16877 0.665066 9.07604 0.716389 9.98826C0.767712 11.0478 1.00943 11.9882 1.78424 12.763C2.56071 13.5395 3.49943 13.7796 4.55901 13.8309C5.47289 13.8822 6.37849 13.8739 7.29072 13.8739C8.20461 13.8739 9.11021 13.8822 10.0224 13.8309C11.082 13.7796 12.0224 13.5378 12.7972 12.763C13.5737 11.9866 13.8137 11.0478 13.8651 9.98826C13.918 9.07604 13.9081 8.17043 13.9081 7.25655ZM7.28907 10.6522C5.40998 10.6522 3.89346 9.13564 3.89346 7.25655C3.89346 5.37745 5.40998 3.86094 7.28907 3.86094C9.16816 3.86094 10.6847 5.37745 10.6847 7.25655C10.6847 9.13564 9.16816 10.6522 7.28907 10.6522ZM10.8237 4.51489C10.385 4.51489 10.0307 4.1606 10.0307 3.72187C10.0307 3.28314 10.385 2.92884 10.8237 2.92884C11.2625 2.92884 11.6168 3.28314 11.6168 3.72187C11.6169 3.82605 11.5965 3.92923 11.5567 4.0255C11.5169 4.12177 11.4585 4.20925 11.3848 4.28291C11.3111 4.35658 11.2237 4.41499 11.1274 4.45479C11.0311 4.4946 10.9279 4.51502 10.8237 4.51489Z" fill="white"/>
</svg>
