<svg width="157" height="56" viewBox="0 0 157 56" fill="none" xmlns="http://www.w3.org/2000/svg">
<path fill-rule="evenodd" clip-rule="evenodd" d="M148.72 2.709L148.225 7.31539V9.94762V12.3331L148.39 16.6104V16.8572H147.482L147.317 15.2943L147.152 14.225L146.905 13.1556L146.492 11.7573L145.997 10.5234L145.337 9.28956L144.594 8.05571L143.356 6.57508L142.366 5.58799L141.211 4.76542L139.643 3.77834L137.992 3.03803L136.837 2.62674L135.269 2.29771L134.196 2.1332H132.794H131.143L129.74 2.21545L128.255 2.46223L126.769 3.03803L125.367 3.61382L124.541 4.02511L123.551 4.76542L122.726 5.34122L121.983 5.99928L120.993 6.82185L120.25 7.64442L119.508 8.63151L118.765 9.70085L118.187 10.4412L117.61 11.5105L116.949 12.7444L116.454 13.9782L115.959 15.3766L115.547 16.6104L115.217 17.5153L114.886 19.0782L114.639 20.1475L114.309 21.3814L114.061 22.7797L113.896 25.0007V27.3039L114.061 30.0183L114.226 31.828L114.474 33.3909L114.969 35.7763L115.378 37.2922H107.309L107.212 37.0925L106.634 35.3651L106.139 33.3909L105.727 31.1699L105.479 29.4425L105.396 27.2216V24.9184L105.562 23.191L105.892 21.2168L106.139 20.1475L106.717 18.1733L107.542 16.2814L108.532 14.1427L109.44 12.6621L110.265 11.4282L111.668 9.61859L112.741 8.46699L114.061 7.23314L115.217 6.24605L116.207 5.50574L117.28 4.76542L118.187 4.18962L119.26 3.61382L120.415 3.12028L121.983 2.37997L123.551 1.80417L125.532 1.31063L127.677 0.899341L129.988 0.65257L132.051 0.570312L135.104 0.734827L137.58 1.22837L140.22 2.05094L142.201 3.03803L144.264 4.10737L146.244 5.25897L148.06 2.79125L148.72 2.709ZM150.618 37.2922V36.8457L150.783 36.0231L151.113 35.036L151.526 34.2135L151.773 33.8022L152.351 33.2264L153.011 32.8151L153.671 32.5683L154.497 32.3215L155.404 32.2393H156.23H156.807V31.4167H136.507V32.2393H136.92H137.992L139.23 32.4038L140.55 32.8151L141.458 33.3909L142.036 33.9667L142.531 34.707L142.944 35.7763L143.191 36.5989L143.298 37.2922H150.618Z" fill="white"/>
<path fill-rule="evenodd" clip-rule="evenodd" d="M60.5146 37.2913L47.9366 7.83271V37.2913H46.6328V7.17013L46.5513 6.59038L46.4699 5.9278L46.3069 5.34804L46.0624 4.93393L45.7365 4.51982L45.329 4.10571L44.7586 3.60878L44.1067 3.27749L43.2918 3.11185L42.5584 3.02902H41.825H40.8472V2.9462V2.03516H53.8853L68.73 37.2913H60.5146ZM84.6878 37.2913V6.59038L72.439 37.2913H70.9195L84.8508 2.2008H97.8074V2.78056L97.074 2.86338L95.8517 3.02902L95.0368 3.19467L94.3034 3.52596L93.733 3.85725L93.0811 4.437L92.7551 4.93393L92.3477 5.76216L92.1847 6.34191V37.2913H84.6878Z" fill="white"/>
<path fill-rule="evenodd" clip-rule="evenodd" d="M14.9972 0.570312H13.8201L0 37.2925H1.58491L3.73085 31.6519H19.201L19.2851 31.8199L21.4391 37.2925H29.1553L14.9972 0.570312ZM18.731 29.9488H4.04228L11.5536 9.38458L18.731 29.9488Z" fill="white"/>
<path d="M2.72845 50.2305L5.82337 42.9918H6.57397L9.66889 50.2305H8.73322L7.80783 48.0507H4.52782L3.61271 50.2305H2.72845ZM6.17297 44.1537L4.87742 47.2281H7.46852L6.17297 44.1537ZM18.7797 43.033V47.2281C18.7797 48.2632 18.5158 49.0377 17.9879 49.5518C17.4601 50.066 16.7952 50.323 15.9932 50.323C15.0952 50.323 14.3721 50.0522 13.8237 49.5107C13.2822 48.9623 13.0114 48.1775 13.0114 47.1561V43.033H13.8854V46.9916C13.8854 47.7799 14.067 48.3968 14.4303 48.8424C14.8005 49.2811 15.3214 49.5004 15.9932 49.5004C16.5964 49.5004 17.066 49.2948 17.4019 48.8835C17.7377 48.4654 17.9057 47.8553 17.9057 47.0533V43.033H18.7797ZM28.496 43.033L25.9461 46.57L28.5886 50.2305H27.5501L25.3703 47.2384L23.2007 50.2305H22.1725L24.815 46.57L22.2856 43.033H23.3138L25.4011 45.912L27.4575 43.033H28.496Z" fill="white"/>
<path d="M37.438 50.2305V43.033H38.3223L41.0265 46.7243L43.6176 43.033H44.4504V50.2305H43.5765V44.4108L41.0265 47.989H40.8928L38.312 44.4416V50.2305H37.438ZM49.0219 50.2305V43.033H53.0833V43.8555H49.8959V46.1793H52.7749V47.0019H49.8959V49.4079H53.1862V50.2305H49.0219ZM57.3524 50.2305V43.033H57.4758C57.6266 43.033 57.9179 43.0295 58.3498 43.0227C58.7885 43.009 59.1107 43.0021 59.3163 43.0021C60.0155 43.0021 60.629 43.0981 61.1568 43.29C61.6846 43.4751 62.1062 43.7356 62.4215 44.0715C62.7368 44.4005 62.9699 44.7741 63.1207 45.1922C63.2784 45.6035 63.3572 46.0525 63.3572 46.5392C63.3572 47.6154 62.9973 48.5031 62.2776 49.2023C61.5647 49.9014 60.5502 50.251 59.2341 50.251C59.0833 50.251 58.8022 50.2476 58.3909 50.2408C57.9865 50.2339 57.678 50.2305 57.4655 50.2305H57.3524ZM59.2958 43.8247C59.1655 43.8247 59.0421 43.8281 58.9256 43.835C58.8091 43.835 58.6823 43.8384 58.5452 43.8453C58.4149 43.8521 58.3087 43.8555 58.2264 43.8555V49.4079C58.857 49.4216 59.2032 49.4285 59.2649 49.4285C60.2657 49.4285 61.0437 49.1646 61.599 48.6367C62.1542 48.1021 62.4318 47.4029 62.4318 46.5392C62.4318 45.7303 62.161 45.0757 61.6195 44.5753C61.078 44.0749 60.3034 43.8247 59.2958 43.8247ZM67.5755 50.2305V43.033H68.4495V50.2305H67.5755ZM78.2377 48.8732L78.5873 49.5313C78.3474 49.7781 78.0218 49.9734 77.6105 50.1174C77.1992 50.2613 76.7673 50.3333 76.3149 50.3333C75.2319 50.3333 74.351 49.9974 73.6724 49.3256C73.0007 48.647 72.6648 47.749 72.6648 46.6317C72.6648 45.5692 72.9869 44.6884 73.6313 43.9892C74.2825 43.2832 75.1565 42.9302 76.2532 42.9302C77.1718 42.9302 77.9018 43.1632 78.4433 43.6293L78.0423 44.2874C77.5625 43.9309 76.9696 43.7527 76.2635 43.7527C75.4821 43.7527 74.8412 44.0201 74.3408 44.5547C73.8404 45.0894 73.5902 45.7817 73.5902 46.6317C73.5902 47.4886 73.8472 48.1843 74.3613 48.719C74.8823 49.2468 75.5609 49.5107 76.3972 49.5107C77.1032 49.5107 77.7167 49.2982 78.2377 48.8732ZM81.3484 50.2305L84.4433 42.9918H85.1939L88.2888 50.2305H87.3531L86.4277 48.0507H83.1477L82.2326 50.2305H81.3484ZM84.7929 44.1537L83.4973 47.2281H86.0884L84.7929 44.1537ZM91.9398 50.2305V43.033H92.8137V49.4079H96.3611V50.2305H91.9398Z" fill="white"/>
<path d="M106.55 47.3926V46.57H109.316V49.3359C109.008 49.6444 108.6 49.8877 108.093 50.066C107.585 50.2442 107.095 50.3333 106.622 50.3333C105.505 50.3333 104.617 49.9974 103.959 49.3256C103.301 48.6539 102.972 47.7559 102.972 46.6317C102.972 45.5761 103.298 44.6953 103.949 43.9892C104.6 43.2832 105.454 42.9302 106.509 42.9302C107.428 42.9302 108.182 43.1632 108.771 43.6293L108.391 44.3285C107.966 43.9447 107.373 43.7527 106.612 43.7527C105.803 43.7527 105.148 44.0166 104.648 44.5444C104.148 45.0723 103.898 45.768 103.898 46.6317C103.898 47.5023 104.148 48.2015 104.648 48.7293C105.155 49.2502 105.82 49.5107 106.643 49.5107C106.986 49.5107 107.332 49.4525 107.681 49.3359C108.031 49.2125 108.302 49.0583 108.494 48.8732V47.3926H106.55ZM114.299 50.2305H113.425V43.033C113.575 43.033 113.922 43.0295 114.463 43.0227C115.005 43.0158 115.303 43.0124 115.358 43.0124C117.064 43.0124 117.918 43.7253 117.918 45.1511C117.918 45.6789 117.764 46.1245 117.455 46.4878C117.154 46.8442 116.787 47.0773 116.355 47.187L118.751 50.2305H117.681L115.471 47.3515H114.299V50.2305ZM115.306 43.835C115.087 43.835 114.751 43.8418 114.299 43.8555V46.5289H115.358C115.796 46.5289 116.177 46.4055 116.499 46.1587C116.828 45.9051 116.992 45.5727 116.992 45.1614C116.992 44.2771 116.43 43.835 115.306 43.835ZM121.601 46.6317C121.601 45.5829 121.947 44.7055 122.64 43.9995C123.332 43.2866 124.209 42.9302 125.272 42.9302C126.328 42.9302 127.202 43.2763 127.894 43.9686C128.593 44.661 128.943 45.5487 128.943 46.6317C128.943 47.6942 128.593 48.5785 127.894 49.2845C127.195 49.9837 126.321 50.3333 125.272 50.3333C124.216 50.3333 123.339 49.9871 122.64 49.2948C121.947 48.6025 121.601 47.7148 121.601 46.6317ZM122.527 46.6317C122.527 47.4474 122.791 48.1329 123.318 48.6881C123.846 49.2365 124.497 49.5107 125.272 49.5107C126.081 49.5107 126.739 49.2365 127.246 48.6881C127.76 48.1398 128.017 47.4543 128.017 46.6317C128.017 45.8023 127.753 45.1168 127.226 44.5753C126.698 44.0269 126.047 43.7527 125.272 43.7527C124.484 43.7527 123.829 44.0235 123.308 44.565C122.787 45.1065 122.527 45.7954 122.527 46.6317ZM138.623 43.033V47.2281C138.623 48.2632 138.359 49.0377 137.831 49.5518C137.303 50.066 136.638 50.323 135.836 50.323C134.938 50.323 134.215 50.0522 133.667 49.5107C133.125 48.9623 132.855 48.1775 132.855 47.1561V43.033H133.729V46.9916C133.729 47.7799 133.91 48.3968 134.274 48.8424C134.644 49.2811 135.165 49.5004 135.836 49.5004C136.44 49.5004 136.909 49.2948 137.245 48.8835C137.581 48.4654 137.749 47.8553 137.749 47.0533V43.033H138.623ZM143.969 50.2305H143.095V43.033C143.226 43.033 143.531 43.0295 144.01 43.0227C144.497 43.0158 144.819 43.0124 144.977 43.0124C145.923 43.0124 146.602 43.2249 147.013 43.6499C147.431 44.068 147.64 44.5993 147.64 45.2436C147.64 45.8743 147.414 46.4089 146.961 46.8476C146.516 47.2864 145.878 47.5057 145.049 47.5057C144.651 47.5057 144.291 47.492 143.969 47.4646V50.2305ZM145.059 43.835C144.785 43.835 144.422 43.8418 143.969 43.8555V46.6317C144.36 46.666 144.71 46.6831 145.018 46.6831C145.546 46.6831 145.961 46.5563 146.262 46.3027C146.564 46.0422 146.715 45.6858 146.715 45.2334C146.715 44.7946 146.578 44.4519 146.303 44.2051C146.029 43.9584 145.614 43.835 145.059 43.835Z" fill="white"/>
</svg>
