<svg width="29" height="50" viewBox="0 0 29 50" fill="none" xmlns="http://www.w3.org/2000/svg">
<path fill-rule="evenodd" clip-rule="evenodd" d="M14.9842 0H13.8238L0.200741 36.1986H1.76322L3.87742 30.6414H19.1285L19.2114 30.807L21.3335 36.1986H28.9405L14.9842 0ZM18.6651 28.9618H4.1844L11.5893 8.68878L18.6651 28.9618Z" fill="white" fill-opacity="0.95"/>
<path d="M2.14327 49.7461C2.08921 49.7461 2.04191 49.7258 2.00136 49.6853C1.96081 49.6447 1.94054 49.5974 1.94054 49.5434C1.94054 49.5096 1.9473 49.4724 1.96081 49.4319L4.52535 42.8533C4.55238 42.7857 4.58617 42.735 4.62672 42.7012C4.67402 42.6674 4.73822 42.6505 4.81931 42.6505H5.16395C5.24504 42.6505 5.30586 42.6674 5.34641 42.7012C5.39371 42.735 5.43088 42.7857 5.45791 42.8533L8.02245 49.4319C8.03596 49.4724 8.04272 49.5096 8.04272 49.5434C8.04272 49.5974 8.02245 49.6447 7.9819 49.6853C7.94135 49.7258 7.89405 49.7461 7.83999 49.7461H7.63726C7.56968 49.7461 7.519 49.7292 7.48521 49.6954C7.45142 49.6549 7.42777 49.6211 7.41426 49.594L6.78579 47.9722H3.19747L2.56901 49.594C2.56225 49.6211 2.5386 49.6549 2.49805 49.6954C2.46426 49.7292 2.41358 49.7461 2.346 49.7461H2.14327ZM3.44074 47.364H6.54252L4.99163 43.3702L3.44074 47.364ZM13.8577 49.8475C13.3104 49.8475 12.8407 49.7461 12.4488 49.5434C12.0636 49.3406 11.7662 49.0298 11.5568 48.6108C11.3473 48.1918 11.2425 47.6546 11.2425 46.9991V42.8837C11.2425 42.8093 11.2628 42.7519 11.3033 42.7114C11.3439 42.6708 11.398 42.6505 11.4655 42.6505H11.648C11.7223 42.6505 11.7798 42.6708 11.8203 42.7114C11.8609 42.7519 11.8811 42.8093 11.8811 42.8837V47.0295C11.8811 47.7864 12.0568 48.3439 12.4082 48.702C12.7664 49.0602 13.2496 49.2393 13.8577 49.2393C14.4592 49.2393 14.9356 49.0602 15.287 48.702C15.6452 48.3439 15.8242 47.7864 15.8242 47.0295V42.8837C15.8242 42.8093 15.8445 42.7519 15.885 42.7114C15.9324 42.6708 15.9898 42.6505 16.0574 42.6505H16.2398C16.3074 42.6505 16.3615 42.6708 16.402 42.7114C16.4426 42.7519 16.4628 42.8093 16.4628 42.8837V46.9991C16.4628 47.6546 16.3581 48.1918 16.1486 48.6108C15.9459 49.0298 15.6519 49.3406 15.2667 49.5434C14.8815 49.7461 14.4119 49.8475 13.8577 49.8475ZM20.0451 49.7461C19.9911 49.7461 19.9438 49.7258 19.9032 49.6853C19.8627 49.6447 19.8424 49.5974 19.8424 49.5434C19.8424 49.5163 19.8458 49.4927 19.8525 49.4724C19.8661 49.4454 19.8762 49.4251 19.8829 49.4116L22.2448 46.1375L19.9742 42.985C19.9471 42.9445 19.9336 42.9006 19.9336 42.8533C19.9336 42.7992 19.9539 42.7519 19.9944 42.7114C20.035 42.6708 20.0823 42.6505 20.1364 42.6505H20.3796C20.4269 42.6505 20.4675 42.6641 20.5013 42.6911C20.5418 42.7114 20.579 42.7485 20.6128 42.8026L22.6502 45.6408L24.6471 42.8026C24.6809 42.7485 24.7147 42.7114 24.7485 42.6911C24.789 42.6641 24.8329 42.6505 24.8802 42.6505H25.1032C25.1573 42.6505 25.2046 42.6708 25.2452 42.7114C25.2857 42.7519 25.306 42.7992 25.306 42.8533C25.306 42.9006 25.2925 42.9445 25.2654 42.985L23.0253 46.1578L25.3769 49.4116C25.3905 49.4251 25.4006 49.4454 25.4073 49.4724C25.4141 49.4927 25.4175 49.5163 25.4175 49.5434C25.4175 49.5974 25.3972 49.6447 25.3567 49.6853C25.3161 49.7258 25.2688 49.7461 25.2148 49.7461H24.9715C24.9242 49.7461 24.8802 49.7326 24.8397 49.7055C24.8059 49.6785 24.7721 49.6413 24.7383 49.594L22.6198 46.6646L20.5013 49.594C20.4675 49.6413 20.4303 49.6785 20.3898 49.7055C20.356 49.7326 20.3154 49.7461 20.2681 49.7461H20.0451Z" fill="white" fill-opacity="0.95"/>
</svg>

