<svg width="18" height="18" viewBox="0 0 18 18" fill="none" xmlns="http://www.w3.org/2000/svg">
<path d="M7.33366 12.3346C7.56977 12.3346 7.76783 12.2546 7.92783 12.0946C8.08727 11.9352 8.16699 11.7374 8.16699 11.5013V6.48047C8.16699 6.24436 8.08727 6.04991 7.92783 5.89713C7.76783 5.74436 7.56977 5.66797 7.33366 5.66797C7.09755 5.66797 6.89977 5.74769 6.74033 5.90714C6.58033 6.06713 6.50033 6.26519 6.50033 6.5013V11.5221C6.50033 11.7582 6.58033 11.9527 6.74033 12.1055C6.89977 12.2582 7.09755 12.3346 7.33366 12.3346ZM10.667 12.3346C10.9031 12.3346 11.1012 12.2546 11.2612 12.0946C11.4206 11.9352 11.5003 11.7374 11.5003 11.5013V6.48047C11.5003 6.24436 11.4206 6.04991 11.2612 5.89713C11.1012 5.74436 10.9031 5.66797 10.667 5.66797C10.4309 5.66797 10.2331 5.74769 10.0737 5.90714C9.91366 6.06713 9.83366 6.26519 9.83366 6.5013V11.5221C9.83366 11.7582 9.91366 11.9527 10.0737 12.1055C10.2331 12.2582 10.4309 12.3346 10.667 12.3346ZM9.00033 17.3346C7.84755 17.3346 6.76421 17.1157 5.75033 16.678C4.73644 16.2407 3.85449 15.6471 3.10449 14.8971C2.35449 14.1471 1.76088 13.2652 1.32366 12.2513C0.885881 11.2374 0.666992 10.1541 0.666992 9.0013C0.666992 7.84852 0.885881 6.76519 1.32366 5.7513C1.76088 4.73741 2.35449 3.85547 3.10449 3.10547C3.85449 2.35547 4.73644 1.76158 5.75033 1.3238C6.76421 0.88658 7.84755 0.667969 9.00033 0.667969C10.1531 0.667969 11.2364 0.88658 12.2503 1.3238C13.2642 1.76158 14.1462 2.35547 14.8962 3.10547C15.6462 3.85547 16.2398 4.73741 16.677 5.7513C17.1148 6.76519 17.3337 7.84852 17.3337 9.0013C17.3337 10.1541 17.1148 11.2374 16.677 12.2513C16.2398 13.2652 15.6462 14.1471 14.8962 14.8971C14.1462 15.6471 13.2642 16.2407 12.2503 16.678C11.2364 17.1157 10.1531 17.3346 9.00033 17.3346ZM9.00033 15.668C10.8475 15.668 12.4206 15.0188 13.7195 13.7205C15.0178 12.4216 15.667 10.8485 15.667 9.0013C15.667 7.15408 15.0178 5.58102 13.7195 4.28214C12.4206 2.9838 10.8475 2.33464 9.00033 2.33464C7.1531 2.33464 5.58033 2.9838 4.28199 4.28214C2.9831 5.58102 2.33366 7.15408 2.33366 9.0013C2.33366 10.8485 2.9831 12.4216 4.28199 13.7205C5.58033 15.0188 7.1531 15.668 9.00033 15.668Z" fill="black"/>
</svg>
