<svg width="18" height="18" viewBox="0 0 18 18" fill="none" xmlns="http://www.w3.org/2000/svg">
<path d="M15.9415 7.1513H15.9165C15.7178 7.15013 15.524 7.09014 15.3593 6.97891C15.1947 6.86768 15.0667 6.71019 14.9915 6.5263C14.9915 6.52409 14.9906 6.52197 14.9891 6.52041C14.9875 6.51885 14.9854 6.51797 14.9832 6.51797C14.909 6.33468 14.89 6.13373 14.9285 5.93979C14.967 5.74586 15.0613 5.56739 15.1998 5.4263L15.2248 5.4013C15.485 5.14016 15.631 4.78657 15.631 4.41797C15.631 4.04937 15.485 3.69578 15.2248 3.43464L14.5665 2.78464C14.3054 2.5245 13.9518 2.37844 13.5832 2.37844C13.2146 2.37844 12.861 2.5245 12.5998 2.78464L12.5915 2.8013C12.4472 2.94031 12.2654 3.0341 12.0685 3.07111C11.8716 3.10813 11.6681 3.08676 11.4832 3.00964C11.2967 2.93714 11.1365 2.81006 11.0235 2.64502C10.9105 2.47997 10.85 2.28466 10.8498 2.08464V2.05964C10.8505 1.8774 10.8152 1.69681 10.746 1.52822C10.6769 1.35962 10.5751 1.20631 10.4466 1.07706C10.3182 0.947809 10.1655 0.845151 9.99729 0.774956C9.82911 0.704761 9.64875 0.668406 9.46651 0.667969H8.53317C8.35093 0.668406 8.17056 0.704761 8.00238 0.774956C7.8342 0.845151 7.68151 0.947809 7.55303 1.07706C7.42456 1.20631 7.32282 1.35962 7.25364 1.52822C7.18445 1.69681 7.14918 1.8774 7.14984 2.05964V2.08464C7.14943 2.28349 7.08976 2.4777 6.97843 2.64247C6.8671 2.80723 6.70918 2.93507 6.52484 3.00964C6.39905 3.06587 6.26261 3.09429 6.12484 3.09297C5.99339 3.09329 5.86318 3.0677 5.74164 3.01765C5.62009 2.9676 5.50961 2.89409 5.4165 2.8013L5.39984 2.78464C5.13869 2.5245 4.78511 2.37844 4.4165 2.37844C4.0479 2.37844 3.69432 2.5245 3.43317 2.78464L2.77484 3.43464C2.5147 3.69578 2.36864 4.04937 2.36864 4.41797C2.36864 4.78657 2.5147 5.14016 2.77484 5.4013L2.79984 5.4263C2.93951 5.56842 3.03421 5.74854 3.07213 5.94416C3.11005 6.13979 3.0895 6.34224 3.01305 6.52626C2.9366 6.71027 2.80764 6.86769 2.64226 6.97885C2.47689 7.09001 2.28243 7.14999 2.08317 7.1513H2.05817C1.68928 7.15196 1.33569 7.2988 1.07484 7.55964C0.813999 7.82049 0.667165 8.17408 0.666504 8.54297V9.46797C0.667165 9.83686 0.813999 10.1905 1.07484 10.4513C1.33569 10.7121 1.68928 10.859 2.05817 10.8596H2.08317C2.28248 10.858 2.47761 10.9169 2.64276 11.0284C2.80792 11.14 2.93533 11.2991 3.00817 11.4846C3.0837 11.6698 3.10423 11.8729 3.06727 12.0695C3.03032 12.2661 2.93747 12.4478 2.79984 12.593L2.78317 12.6013C2.52292 12.8641 2.37693 13.219 2.37693 13.5888C2.37693 13.9586 2.52292 14.3135 2.78317 14.5763L3.43317 15.2263C3.69432 15.4864 4.0479 15.6325 4.4165 15.6325C4.78511 15.6325 5.13869 15.4864 5.39984 15.2263L5.4165 15.2096C5.55566 15.0681 5.73423 14.9717 5.92894 14.933C6.12365 14.8944 6.32549 14.9153 6.50817 14.993C6.69603 15.0668 6.85751 15.1951 6.97186 15.3614C7.08621 15.5277 7.14819 15.7245 7.14984 15.9263V15.9513C7.1494 16.1331 7.18488 16.3132 7.25424 16.4812C7.32361 16.6492 7.42548 16.8019 7.55403 16.9304C7.68257 17.059 7.83524 17.1609 8.00327 17.2302C8.1713 17.2996 8.35139 17.3351 8.53317 17.3346H9.46651C9.64829 17.3351 9.82837 17.2996 9.9964 17.2302C10.1644 17.1609 10.3171 17.059 10.4456 16.9304C10.5742 16.8019 10.6761 16.6492 10.7454 16.4812C10.8148 16.3132 10.8503 16.1331 10.8498 15.9513V15.9263C10.8515 15.7245 10.9135 15.5277 11.0278 15.3614C11.1422 15.1951 11.3036 15.0668 11.4915 14.993C11.6742 14.9153 11.876 14.8944 12.0707 14.933C12.2654 14.9717 12.444 15.0681 12.5832 15.2096L12.5998 15.2263C12.861 15.4864 13.2146 15.6325 13.5832 15.6325C13.9518 15.6325 14.3054 15.4864 14.5665 15.2263L15.2165 14.5763C15.4768 14.3135 15.6227 13.9586 15.6227 13.5888C15.6227 13.219 15.4768 12.8641 15.2165 12.6013L15.1998 12.593C15.0622 12.4478 14.9694 12.2661 14.9324 12.0695C14.8954 11.8729 14.916 11.6698 14.9915 11.4846C15.0643 11.2991 15.1918 11.14 15.3569 11.0284C15.5221 10.9169 15.7172 10.858 15.9165 10.8596H15.9415C16.3104 10.859 16.664 10.7121 16.9248 10.4513C17.1857 10.1905 17.3325 9.83686 17.3332 9.46797V8.54297C17.3325 8.17408 17.1857 7.82049 16.9248 7.55964C16.664 7.2988 16.3104 7.15196 15.9415 7.1513ZM8.99984 11.918C8.42298 11.918 7.85907 11.7469 7.37942 11.4264C6.89978 11.1059 6.52594 10.6504 6.30519 10.1175C6.08443 9.58451 6.02667 8.99807 6.13921 8.43229C6.25175 7.86651 6.52954 7.34681 6.93744 6.93891C7.34535 6.531 7.86505 6.25322 8.43082 6.14068C8.9966 6.02814 9.58305 6.0859 10.116 6.30665C10.6489 6.52741 11.1045 6.90125 11.425 7.38089C11.7454 7.86053 11.9165 8.42444 11.9165 9.0013C11.9165 9.77485 11.6092 10.5167 11.0622 11.0637C10.5153 11.6107 9.77339 11.918 8.99984 11.918Z" fill="white"/>
</svg>
