<svg width="17" height="15" viewBox="0 0 17 15" fill="none" xmlns="http://www.w3.org/2000/svg">
<path d="M16.0208 7.74844C16.0208 3.86239 12.6483 0.703125 8.49992 0.703125C4.35159 0.703125 0.979085 3.86239 0.979085 7.74844C0.979084 11.6345 4.35158 14.7938 8.49992 14.7938C12.6483 14.7938 16.0208 11.6345 16.0208 7.74844ZM7.93787 9.75823L5.56287 7.53339C5.41245 7.38507 5.33325 7.19965 5.33325 7.00683C5.33325 6.81401 5.41245 6.62859 5.56287 6.48027C5.87162 6.19104 6.37822 6.19104 6.68697 6.48027L8.49992 8.18601L10.3129 6.48027C10.6216 6.19104 11.1282 6.19104 11.437 6.48027C11.7457 6.7695 11.7457 7.24416 11.437 7.53339L9.06197 9.75823C8.75322 10.0475 8.24662 10.0475 7.93787 9.75823Z" fill="#0CA984"/>
</svg>
