<svg width="17" height="16" viewBox="0 0 17 16" fill="none" xmlns="http://www.w3.org/2000/svg">
<path d="M8.33203 0C3.92403 0 0.332031 3.592 0.332031 8C0.332031 12.408 3.92403 16 8.33203 16C12.74 16 16.332 12.408 16.332 8C16.332 3.592 12.74 0 8.33203 0ZM12.1 6.96797L8.10003 10.968C7.94003 11.12 7.74003 11.2 7.53203 11.2C7.32403 11.2 7.12404 11.12 6.96404 10.968L4.56404 8.56797C4.25204 8.25597 4.25204 7.74403 4.56404 7.43203C4.87604 7.12003 5.38802 7.12003 5.70002 7.43203L7.53203 9.27207L10.964 5.83203C11.276 5.52003 11.788 5.52003 12.1 5.83203C12.412 6.14403 12.412 6.65597 12.1 6.96797Z" fill="#0CA984"/>
</svg>
