<svg width="14" height="16" viewBox="0 0 14 16" fill="none" xmlns="http://www.w3.org/2000/svg">
<path d="M2.83382 4.2487C2.83382 1.9512 4.70299 0.0820312 7.00049 0.0820312C9.29799 0.0820312 11.1672 1.9512 11.1672 4.2487C11.1672 6.5462 9.29799 8.41537 7.00049 8.41537C4.70299 8.41537 2.83382 6.5462 2.83382 4.2487ZM10.4313 9.3079C9.96549 9.18957 9.45884 9.25625 9.03967 9.48958C7.77467 10.1929 6.2263 10.1929 4.9613 9.48958C4.54297 9.25708 4.03548 9.19124 3.56965 9.3079C1.90965 9.72707 0.750488 11.2337 0.750488 12.9712V13.8137C0.750488 14.3454 0.892139 14.8653 1.16131 15.3186C1.38047 15.687 1.79133 15.9162 2.23217 15.9162H11.768C12.2088 15.9162 12.6196 15.6878 12.8388 15.3178C13.108 14.8653 13.2497 14.3454 13.2497 13.8137V12.9712C13.2505 11.2337 12.0913 9.72707 10.4313 9.3079Z" fill="white"/>
</svg>
