<svg width="18" height="13" viewBox="0 0 18 13" fill="none" xmlns="http://www.w3.org/2000/svg">
<path d="M16.956 2.1052C16.3107 1.7587 15.5322 1.79556 14.9238 2.20056L12.5253 3.79446C12.1698 1.66596 10.3275 0.0351562 8.1 0.0351562H4.5C2.0187 0.0351562 0 2.05386 0 4.53516V8.13516C0 10.6165 2.0187 12.6352 4.5 12.6352H8.1C10.3275 12.6352 12.1689 11.0035 12.5253 8.87586L14.9238 10.4698C15.2559 10.6903 15.6366 10.8009 16.02 10.8009C16.3404 10.8009 16.6617 10.7226 16.956 10.5651C17.6004 10.2204 18 9.55172 18 8.82092V3.85027C18 3.11857 17.6004 2.4499 16.956 2.1052ZM10.8 8.13516C10.8 9.62376 9.5886 10.8352 8.1 10.8352H4.5C3.0114 10.8352 1.8 9.62376 1.8 8.13516V4.53516C1.8 3.04656 3.0114 1.83516 4.5 1.83516H8.1C9.5886 1.83516 10.8 3.04656 10.8 4.53516V8.13516ZM16.2 8.82092C16.2 8.89202 16.1685 8.94605 16.1055 8.97935C16.0416 9.01445 15.9786 9.00994 15.9201 8.97034L12.6 6.76362V5.90669L15.9201 3.69998C15.9786 3.66038 16.0416 3.65587 16.1055 3.69097C16.1685 3.72427 16.2 3.77829 16.2 3.84939V8.82092Z" fill="#6B6C74"/>
</svg>
