<svg width="18" height="18" viewBox="0 0 18 18" fill="none" xmlns="http://www.w3.org/2000/svg">
<path d="M12.2899 10.8833C12.1095 10.7903 11.2105 10.3489 11.0433 10.2891C10.8761 10.2261 10.7536 10.1962 10.6327 10.3821C10.5102 10.5663 10.1625 10.9762 10.0532 11.1007C9.94728 11.2235 9.83967 11.2384 9.65921 11.1471C8.58639 10.6094 7.88276 10.1879 7.17583 8.97146C6.98875 8.64785 7.36291 8.67108 7.71224 7.97241C7.77184 7.8496 7.74204 7.74505 7.69568 7.65212C7.64933 7.55918 7.2851 6.65971 7.13278 6.29295C6.98544 5.93615 6.83312 5.98593 6.7222 5.97929C6.61624 5.97266 6.49538 5.97266 6.37287 5.97266C6.25036 5.97266 6.05334 6.01912 5.88613 6.20001C5.71891 6.38422 5.24707 6.82732 5.24707 7.7268C5.24707 8.62627 5.90103 9.49753 5.99043 9.62034C6.08314 9.74315 7.27682 11.5886 9.10955 12.3835C10.2685 12.8847 10.7221 12.9278 11.3016 12.8415C11.6542 12.7884 12.381 12.4001 12.5317 11.9703C12.6823 11.5421 12.6823 11.1753 12.6376 11.099C12.5929 11.0177 12.4704 10.9712 12.2899 10.8833Z" fill="white"/>
<path d="M15.7951 6.54547C15.421 5.65439 14.8845 4.85458 14.2008 4.16761C13.517 3.48229 12.719 2.943 11.8283 2.56964C10.9178 2.18633 9.9509 1.99219 8.95423 1.99219H8.92112C7.91784 1.99717 6.94601 2.19629 6.03212 2.5879C5.14969 2.96623 4.35832 3.50386 3.68119 4.18918C3.00405 4.87449 2.47261 5.67099 2.10507 6.55874C1.72428 7.47803 1.53224 8.45539 1.5372 9.46096C1.54217 10.6126 1.817 11.7559 2.33189 12.778V15.3002C2.33189 15.7217 2.67294 16.0636 3.09346 16.0636H5.6116C6.63144 16.5796 7.77214 16.8551 8.92112 16.86H8.95589C9.94759 16.86 10.9095 16.6676 11.8151 16.2909C12.7008 15.9208 13.4972 15.3899 14.1793 14.7112C14.863 14.0325 15.4011 13.2393 15.7769 12.3549C16.1676 11.4389 16.3663 10.4649 16.3713 9.4593C16.3762 8.44875 16.1809 7.46807 15.7951 6.54547ZM13.2935 13.8135C12.133 14.9651 10.5933 15.5989 8.95423 15.5989H8.92609C7.92777 15.594 6.93607 15.345 6.06027 14.8771L5.9212 14.8024H3.59013V12.4661L3.51563 12.3267C3.04875 11.4489 2.80042 10.4549 2.79545 9.45432C2.78883 7.79994 3.41961 6.24678 4.57686 5.07694C5.73246 3.90709 7.27712 3.25994 8.92774 3.2533H8.95589C9.78368 3.2533 10.5866 3.41426 11.3432 3.73285C12.0816 4.04315 12.7439 4.48952 13.3134 5.06034C13.8813 5.6295 14.3283 6.2949 14.6379 7.03498C14.959 7.8016 15.1196 8.61469 15.1163 9.45432C15.1064 11.107 14.4591 12.6552 13.2935 13.8135Z" fill="white"/>
</svg>
