<svg width="17" height="11" viewBox="0 0 17 11" fill="none" xmlns="http://www.w3.org/2000/svg">
<path fill-rule="evenodd" clip-rule="evenodd" d="M16.5167 1.61664C16.6281 1.25024 16.5167 0.980469 15.9832 0.980469H14.2217C13.7734 0.980469 13.5667 1.21333 13.4547 1.47035C13.4547 1.47035 12.5588 3.61507 11.2898 5.0082C10.8791 5.41218 10.6926 5.54035 10.4684 5.54035C10.3564 5.54035 10.1879 5.41218 10.1879 5.04511V1.61664C10.1879 1.17642 10.0645 0.980469 9.69134 0.980469H6.92119C6.64135 0.980469 6.47291 1.18447 6.47291 1.37841C6.47291 1.79514 7.10774 1.89177 7.17283 3.0648V5.6135C7.17283 6.1725 7.07016 6.27383 6.84603 6.27383C6.24878 6.27383 4.79592 4.11904 3.93361 1.65355C3.76651 1.17374 3.5974 0.980469 3.14712 0.980469H1.38423C0.880933 0.980469 0.780273 1.21333 0.780273 1.47035C0.780273 1.92801 1.37752 4.20158 3.56184 7.20862C5.01805 9.26208 7.06815 10.3754 8.93572 10.3754C10.0557 10.3754 10.194 10.1284 10.194 9.70229V8.15012C10.194 7.65555 10.3 7.5569 10.655 7.5569C10.9167 7.5569 11.3643 7.68575 12.4098 8.67557C13.6043 9.84926 13.8009 10.3754 14.4733 10.3754H16.2349C16.7382 10.3754 16.9905 10.1284 16.8456 9.63988C16.6858 9.15403 16.1154 8.44875 15.3592 7.61193C14.9485 7.13547 14.3324 6.62211 14.1452 6.36509C13.8842 6.0356 13.9586 5.88863 14.1452 5.59538C14.1452 5.59538 16.2926 2.62525 16.5161 1.61664H16.5167Z" fill="white"/>
</svg>
