<svg width="17" height="12" viewBox="0 0 17 12" fill="none" xmlns="http://www.w3.org/2000/svg">
<path d="M15.6862 2.09596C15.5976 1.76574 15.4237 1.4646 15.1821 1.22267C14.9405 0.980743 14.6396 0.806521 14.3094 0.717438C13.0943 0.390625 8.22343 0.390625 8.22343 0.390625C8.22343 0.390625 3.35253 0.390625 2.13741 0.715699C1.80715 0.804494 1.50608 0.978619 1.26441 1.22059C1.02274 1.46256 0.848999 1.76386 0.760621 2.09422C0.435547 3.31108 0.435547 5.8491 0.435547 5.8491C0.435547 5.8491 0.435547 8.38711 0.760621 9.60223C0.939673 10.2732 1.46814 10.8017 2.13741 10.9808C3.35253 11.3076 8.22343 11.3076 8.22343 11.3076C8.22343 11.3076 13.0943 11.3076 14.3094 10.9808C14.9805 10.8017 15.5072 10.2732 15.6862 9.60223C16.0113 8.38711 16.0113 5.8491 16.0113 5.8491C16.0113 5.8491 16.0113 3.31108 15.6862 2.09596ZM6.67628 8.17851V3.51968L10.7093 5.83171L6.67628 8.17851Z" fill="white"/>
</svg>
