<svg width="67" height="64" viewBox="0 0 67 64" fill="none" xmlns="http://www.w3.org/2000/svg">
<g clip-path="url(#clip0_1197_5687)">
<path d="M53.6318 13.1719H12.832V55.983H53.6318V13.1719Z" fill="#00513E"/>
<path d="M12.6631 13.1679C12.7124 13.1679 12.7616 13.1886 12.832 13.2092C12.832 27.4521 12.832 41.6949 12.832 55.9584C9.6735 56.1991 7.00744 55.422 4.89008 53.4276C3.39174 52.0108 2.66719 50.3465 2.66719 48.4622C2.66719 41.7912 2.66719 35.1271 2.66719 28.4561C2.66719 25.9116 2.66016 23.367 2.66016 20.8224C2.66016 17.7482 4.35546 15.5131 7.47172 14.0001C9.07557 13.2298 10.8553 13.1129 12.6631 13.1679Z" fill="#0E9F89"/>
<path d="M46.5064 13.1647C48.3283 13.1647 48.5112 13.1647 50.3261 13.1647C50.3261 27.4557 50.3261 41.6986 50.3261 55.9689C37.9384 55.9689 28.5685 55.9689 16.1387 55.9689C16.1387 41.7054 16.1387 27.4626 16.1387 13.1785C17.9536 13.1785 18.3475 13.1785 20.1975 13.1785C20.1975 12.9997 20.1975 12.8621 20.1975 12.7314C20.1975 11.1978 20.2046 9.6573 20.1905 8.12367C20.1764 7.05081 20.4719 6.1155 21.3301 5.38651C21.9351 4.87759 22.6315 4.61625 23.4193 4.61625C25.8603 4.60937 28.2942 4.60938 30.7351 4.60938C34.8362 4.60938 38.9443 4.61625 43.0454 4.60938C44.1217 4.60938 45.0151 4.95324 45.7185 5.751C46.2813 6.39059 46.4923 7.14021 46.4923 7.97924C46.4853 9.5954 46.4923 11.2116 46.4923 12.8277C46.4853 12.9171 46.4923 13.0203 46.5064 13.1647ZM24.6011 13.1647C24.7699 13.1647 24.8966 13.1647 25.0232 13.1647C26.9647 13.1647 28.9132 13.1647 30.8547 13.1647C34.4845 13.1647 38.1213 13.1647 41.7511 13.1716C42.0395 13.1716 42.1028 13.0822 42.1028 12.814C42.0887 11.6104 42.1028 10.4069 42.1028 9.2034C42.1028 9.10712 42.0887 9.01084 42.0747 8.90768C36.2361 8.90768 30.4327 8.90768 24.6011 8.90768C24.6011 10.3244 24.6011 11.7136 24.6011 13.1647Z" fill="white"/>
<mask id="mask0_1197_5687" style="mask-type:alpha" maskUnits="userSpaceOnUse" x="16" y="4" width="35" height="52">
<path d="M46.5064 13.1647C48.3283 13.1647 48.5112 13.1647 50.3261 13.1647C50.3261 27.4557 50.3261 41.6985 50.3261 55.9689C37.9384 55.9689 28.5685 55.9689 16.1387 55.9689C16.1387 41.7054 16.1387 27.4626 16.1387 13.1785C17.9536 13.1785 18.3475 13.1785 20.1975 13.1785C20.1975 12.9997 20.1975 12.8621 20.1975 12.7314C20.1975 11.1978 20.2046 9.6573 20.1905 8.12367C20.1764 7.05081 20.4719 6.1155 21.3301 5.38651C21.9351 4.87759 22.6315 4.61625 23.4193 4.61625C25.8603 4.60937 28.2942 4.60938 30.7351 4.60938C34.8362 4.60938 38.9443 4.61625 43.0454 4.60938C44.1217 4.60938 45.0151 4.95324 45.7185 5.751C46.2813 6.39059 46.4923 7.14021 46.4923 7.97924C46.4853 9.5954 46.4923 11.2116 46.4923 12.8277C46.4853 12.9171 46.4923 13.0203 46.5064 13.1647ZM24.6011 13.1647C24.7699 13.1647 24.8966 13.1647 25.0232 13.1647C26.9647 13.1647 28.9132 13.1647 30.8547 13.1647C34.4845 13.1647 38.1213 13.1647 41.7511 13.1716C42.0395 13.1716 42.1028 13.0822 42.1028 12.814C42.0887 11.6104 42.1028 10.4069 42.1028 9.2034C42.1028 9.10712 42.0887 9.01083 42.0747 8.90767C36.2361 8.90767 30.4327 8.90767 24.6011 8.90767C24.6011 10.3244 24.6011 11.7136 24.6011 13.1647Z" fill="#F7F9FC"/>
</mask>
<g mask="url(#mask0_1197_5687)">
<path d="M47.2098 2.66797H18.7695V13.1765H47.2098V2.66797Z" fill="#0E9F89"/>
</g>
<path d="M64.0008 20.712C64.0008 17.8786 62.4181 15.7672 59.6043 14.2336C57.8738 13.2914 55.9112 13.1126 53.8993 13.1539C53.5898 13.1607 53.632 13.3189 53.632 13.484C53.632 18.4356 53.632 23.3804 53.632 28.332C53.632 37.0318 53.632 45.7247 53.625 54.4244C53.625 54.9265 53.625 55.4285 53.625 55.9718C54.8912 56.0131 56.0941 56.02 57.2759 55.7449C61.2714 54.8233 63.9938 51.9142 63.9938 48.4825C64.0078 39.2325 64.0008 29.9688 64.0008 20.712Z" fill="#0E9F89"/>
<path d="M36.5668 37.7361C36.5668 38.6232 36.5668 39.4623 36.5668 40.3082C36.5668 41.2641 36.5668 42.2201 36.5668 43.1691C36.5668 43.7399 36.2714 44.0425 35.6945 44.0425C34.1047 44.0494 32.515 44.0494 30.9252 44.0425C30.3976 44.0425 30.1022 43.7193 30.1022 43.176C30.1022 41.4704 30.1022 39.7649 30.1022 38.0593C30.1022 37.963 30.1022 37.8599 30.1022 37.7361C29.9685 37.7361 29.87 37.7361 29.7645 37.7361C28.0481 37.7361 26.3247 37.7361 24.6082 37.7361C23.9259 37.7361 23.6445 37.4679 23.6445 36.8008C23.6445 35.3221 23.6445 33.8435 23.6445 32.3649C23.6445 31.6909 23.9189 31.4227 24.6012 31.4227C26.3106 31.4227 28.02 31.4227 29.7293 31.4227C29.8419 31.4227 29.9474 31.4227 30.0951 31.4227C30.0951 31.3127 30.0951 31.2233 30.0951 31.1339C30.0951 29.4283 30.0951 27.7227 30.0951 26.0172C30.0951 25.3845 30.3835 25.1094 31.0307 25.1094C32.5431 25.1094 34.0555 25.1094 35.5679 25.1094C36.2784 25.1094 36.5527 25.3707 36.5527 26.0791C36.5598 27.7709 36.5527 29.4558 36.5527 31.1476C36.5527 31.2302 36.5527 31.3127 36.5527 31.4296C36.6653 31.4296 36.7638 31.4296 36.8552 31.4296C38.5998 31.4296 40.3443 31.4296 42.0888 31.4365C42.729 31.4365 43.0033 31.7116 43.0033 32.3374C43.0033 33.8229 43.0033 35.3084 43.0033 36.7939C43.0033 37.4747 42.736 37.7361 42.0537 37.7361C40.3162 37.7361 38.5787 37.7361 36.8482 37.7429C36.7778 37.7361 36.6934 37.7361 36.5668 37.7361Z" fill="#0E9F89"/>
</g>
<defs>
<clipPath id="clip0_1197_5687">
<rect width="61.3333" height="53.3333" fill="white" transform="translate(2.66797 2.66797)"/>
</clipPath>
</defs>
</svg>
