<svg width="16" height="16" viewBox="0 0 16 16" fill="none" xmlns="http://www.w3.org/2000/svg">
<path fill-rule="evenodd" clip-rule="evenodd" d="M13.8125 8.87742C13.7375 8.79492 13.6325 8.74997 13.5275 8.74997H2.4725C2.3675 8.74997 2.2625 8.79492 2.1875 8.87742C2.12 8.95992 2.09 9.06503 2.0975 9.17753L2.63 13.2124C2.8025 14.5174 3.92 15.5 5.2325 15.5H10.7825C12.1025 15.5 13.2275 14.5174 13.3925 13.2049L13.9025 9.17002C13.91 9.06502 13.88 8.95992 13.8125 8.87742ZM7.25 12.5C7.25 12.9125 6.9125 13.25 6.5 13.25C6.0875 13.25 5.75 12.9125 5.75 12.5V11C5.75 10.5875 6.0875 10.25 6.5 10.25C6.9125 10.25 7.25 10.5875 7.25 11V12.5ZM10.25 12.5C10.25 12.9125 9.9125 13.25 9.5 13.25C9.0875 13.25 8.75 12.9125 8.75 12.5V11C8.75 10.5875 9.0875 10.25 9.5 10.25C9.9125 10.25 10.25 10.5875 10.25 11V12.5ZM15.5 5.93747C15.5 6.86972 14.7447 7.62497 13.8125 7.62497H2.1875C1.25525 7.62497 0.5 6.86972 0.5 5.93747C0.5 5.00522 1.25525 4.24997 2.1875 4.24997H3.82549L5.85725 0.863804C6.07025 0.507554 6.53001 0.392791 6.88626 0.606541C7.24176 0.819541 7.3565 1.27991 7.1435 1.63541L5.57525 4.24924H10.4262L8.85801 1.63541C8.64501 1.27991 8.75975 0.819541 9.11525 0.606541C9.47075 0.393541 9.93125 0.508304 10.1443 0.863804L12.176 4.24997H13.814C14.7448 4.24997 15.5 5.00522 15.5 5.93747Z" fill="white"/>
</svg>
