<svg width="15" height="15" viewBox="0 0 15 15" fill="none" xmlns="http://www.w3.org/2000/svg">
<path d="M6.82459 1.18114C7.10299 0.324322 8.31516 0.324322 8.59356 1.18114L9.66661 4.48368C9.79112 4.86686 10.1482 5.12629 10.5511 5.12629L14.0236 5.12629C14.9245 5.12629 15.2991 6.27913 14.5702 6.80868L11.7609 8.84975C11.435 9.08657 11.2986 9.50634 11.4231 9.88953L12.4961 13.1921C12.7745 14.0489 11.7939 14.7614 11.065 14.2318L8.25571 12.1908C7.92976 11.9539 7.48839 11.9539 7.16243 12.1908L4.35313 14.2318C3.62428 14.7614 2.64361 14.0489 2.92201 13.1921L3.99507 9.88953C4.11957 9.50634 3.98318 9.08657 3.65722 8.84975L0.84792 6.80868C0.119066 6.27913 0.493647 5.12629 1.39456 5.12629L4.86705 5.12629C5.26995 5.12629 5.62703 4.86686 5.75153 4.48368L6.82459 1.18114Z" fill="#FCD50B"/>
</svg>
