<svg width="18" height="19" viewBox="0 0 18 19" fill="none" xmlns="http://www.w3.org/2000/svg">
<path d="M17.9258 3.05884L14.8182 15.7263C14.3729 17.5318 12.857 18.3428 11.5305 18.3428C11.5211 18.3428 11.5116 18.3428 11.5116 18.3428C10.1757 18.3331 8.6503 17.5028 8.23343 15.678L7.41863 12.154L12.5159 6.9595C12.8854 6.58295 12.8854 5.96511 12.5159 5.58856C12.1464 5.21202 11.54 5.21202 11.1705 5.58856L6.07321 10.7828L2.61505 9.95264C0.824374 9.52782 0.00955806 7.97341 8.35598e-05 6.62172C-0.00939094 5.26036 0.786488 3.69625 2.56769 3.24247L14.9982 0.0756013C15.8225 -0.136809 16.6847 0.104491 17.291 0.72241C17.8974 1.34033 18.1343 2.21886 17.9258 3.05884Z" fill="white"/>
</svg>
