<svg width="130" height="47" viewBox="0 0 130 47" fill="none" xmlns="http://www.w3.org/2000/svg">
<path fill-rule="evenodd" clip-rule="evenodd" d="M122.81 1.78596L122.402 5.58217V7.75144V9.71733L122.538 13.2424V13.4458H121.79L121.654 12.1578L121.518 11.2765L121.314 10.3952L120.974 9.24281L120.566 8.22596L120.022 7.20912L119.41 6.19228L118.39 4.97207L117.574 4.1586L116.622 3.4807L115.33 2.66723L113.969 2.05712L113.017 1.71817L111.725 1.44702L110.841 1.31144H109.685H108.325L107.169 1.37923L105.945 1.5826L104.721 2.05712L103.564 2.53165L102.884 2.8706L102.068 3.4807L101.388 3.95523L100.776 4.49754L99.96 5.17544L99.348 5.85333L98.7359 6.66681L98.1238 7.54807L97.6478 8.15817L97.1717 9.03944L96.6277 10.0563L96.2196 11.0731L95.8116 12.2255L95.4716 13.2424L95.1995 13.9881L94.9275 15.2761L94.7235 16.1573L94.4515 17.1742L94.2474 18.3266L94.1114 20.1569V22.055L94.2474 24.2921L94.3834 25.7834L94.5875 27.0714L94.9955 29.0373L95.3328 30.2861H88.6824L88.6028 30.122L88.1268 28.6984L87.7188 27.0714L87.3787 25.2411L87.1747 23.8175L87.1067 21.9872V20.0891L87.2427 18.6655L87.5147 17.0386L87.7188 16.1573L88.1948 14.5304L88.8749 12.9712L89.691 11.2087L90.439 9.98849L91.1191 8.97165L92.2752 7.48028L93.1593 6.53123L94.2474 5.51438L95.1995 4.70091L96.0156 4.09081L96.8997 3.4807L97.6478 3.00617L98.5319 2.53165L99.484 2.12491L100.776 1.51481L102.068 1.04028L103.7 0.633543L105.469 0.294595L107.373 0.091227L109.073 0.0234375L111.589 0.159016L113.629 0.565753L115.806 1.24365L117.438 2.05712L119.138 2.93838L120.77 3.88744L122.266 1.85375L122.81 1.78596ZM124.375 30.2861V29.9186L124.511 29.2407L124.783 28.4272L125.123 27.7493L125.327 27.4104L125.803 26.9359L126.347 26.5969L126.891 26.3935L127.571 26.1902L128.319 26.1224H128.999H129.475V25.4445H112.745V26.1224H113.085H113.969L114.99 26.258L116.078 26.5969L116.826 27.0714L117.302 27.546L117.71 28.1561L118.05 29.0373L118.254 29.7152L118.342 30.2861H124.375Z" fill="white"/>
<path fill-rule="evenodd" clip-rule="evenodd" d="M50.1194 30.2861L39.7547 6.01126V30.2861H38.6802V5.46522L38.613 4.98744L38.5459 4.44139L38.4115 3.96361L38.2101 3.62233L37.9415 3.28105L37.6057 2.93978L37.1356 2.53025L36.5983 2.25723L35.9268 2.12072L35.3224 2.05246H34.718H33.9121V1.98421V1.2334H44.657L56.8898 30.2861H50.1194ZM70.0419 30.2861V4.98744L59.9484 30.2861H58.6962L70.1762 1.36991H80.854V1.8477L80.2496 1.91595L79.2423 2.05246L78.5707 2.18897L77.9663 2.46199L77.4962 2.73501L76.959 3.2128L76.6904 3.62233L76.3546 4.30488L76.2203 4.78267V30.2861H70.0419Z" fill="white"/>
<path fill-rule="evenodd" clip-rule="evenodd" d="M12.6092 0.0234375H11.6391L0.25 30.2861H1.55615L3.32439 25.6383H16.0736L16.1429 25.7768L17.9178 30.2861H24.2769L12.6092 0.0234375ZM15.6866 24.2335H3.58138L9.77157 7.28613L15.6866 24.2335Z" fill="white"/>
<path d="M2.47536 39.707L4.58236 34.779H5.09336L7.20036 39.707H6.56336L5.93336 38.223H3.70036L3.07736 39.707H2.47536ZM4.82036 35.57L3.93836 37.663H5.70236L4.82036 35.57ZM13.4029 34.807V37.663C13.4029 38.3677 13.2232 38.895 12.8639 39.245C12.5046 39.595 12.0519 39.77 11.5059 39.77C10.8946 39.77 10.4022 39.5857 10.0289 39.217C9.66024 38.8437 9.47591 38.3094 9.47591 37.614V34.807H10.0709V37.502C10.0709 38.0387 10.1946 38.4587 10.4419 38.762C10.6939 39.0607 11.0486 39.21 11.5059 39.21C11.9166 39.21 12.2362 39.07 12.4649 38.79C12.6936 38.5054 12.8079 38.09 12.8079 37.544V34.807H13.4029ZM20.0177 34.807L18.2817 37.215L20.0807 39.707H19.3737L17.8897 37.67L16.4127 39.707H15.7127L17.5117 37.215L15.7897 34.807H16.4897L17.9107 36.767L19.3107 34.807H20.0177Z" fill="white"/>
<path d="M30.9472 39.707V34.807H31.5492L33.3902 37.32L35.1542 34.807H35.7212V39.707H35.1262V35.745L33.3902 38.181H33.2992L31.5422 35.766V39.707H30.9472ZM38.8334 39.707V34.807H41.5984V35.367H39.4284V36.949H41.3884V37.509H39.4284V39.147H41.6684V39.707H38.8334ZM44.5047 39.707V34.807H44.5887C44.6914 34.807 44.8897 34.8047 45.1837 34.8C45.4824 34.7907 45.7017 34.786 45.8417 34.786C46.3177 34.786 46.7354 34.8514 47.0947 34.982C47.4541 35.108 47.7411 35.2854 47.9557 35.514C48.1704 35.738 48.3291 35.9924 48.4317 36.277C48.5391 36.557 48.5927 36.8627 48.5927 37.194C48.5927 37.9267 48.3477 38.531 47.8577 39.007C47.3724 39.483 46.6817 39.721 45.7857 39.721C45.6831 39.721 45.4917 39.7187 45.2117 39.714C44.9364 39.7094 44.7264 39.707 44.5817 39.707H44.5047ZM45.8277 35.346C45.7391 35.346 45.6551 35.3484 45.5757 35.353C45.4964 35.353 45.4101 35.3554 45.3167 35.36C45.2281 35.3647 45.1557 35.367 45.0997 35.367V39.147C45.5291 39.1564 45.7647 39.161 45.8067 39.161C46.4881 39.161 47.0177 38.9814 47.3957 38.622C47.7737 38.258 47.9627 37.782 47.9627 37.194C47.9627 36.6434 47.7784 36.1977 47.4097 35.857C47.0411 35.5164 46.5137 35.346 45.8277 35.346ZM51.4645 39.707V34.807H52.0595V39.707H51.4645ZM58.7233 38.783L58.9613 39.231C58.7979 39.399 58.5763 39.532 58.2963 39.63C58.0163 39.728 57.7223 39.777 57.4143 39.777C56.6769 39.777 56.0773 39.5484 55.6153 39.091C55.1579 38.629 54.9293 38.0177 54.9293 37.257C54.9293 36.5337 55.1486 35.934 55.5873 35.458C56.0306 34.9774 56.6256 34.737 57.3723 34.737C57.9976 34.737 58.4946 34.8957 58.8633 35.213L58.5903 35.661C58.2636 35.4184 57.8599 35.297 57.3793 35.297C56.8473 35.297 56.4109 35.479 56.0703 35.843C55.7296 36.207 55.5593 36.6784 55.5593 37.257C55.5593 37.8404 55.7343 38.314 56.0843 38.678C56.4389 39.0374 56.9009 39.217 57.4703 39.217C57.9509 39.217 58.3686 39.0724 58.7233 38.783ZM60.841 39.707L62.948 34.779H63.459L65.566 39.707H64.929L64.299 38.223H62.066L61.443 39.707H60.841ZM63.186 35.57L62.304 37.663H64.068L63.186 35.57ZM68.0515 39.707V34.807H68.6465V39.147H71.0615V39.707H68.0515Z" fill="white"/>
<path d="M85.0509 37.775V37.215H86.9339V39.098C86.7239 39.308 86.4462 39.4737 86.1009 39.595C85.7556 39.7164 85.4219 39.777 85.0999 39.777C84.3392 39.777 83.7349 39.5484 83.2869 39.091C82.8389 38.6337 82.6149 38.0224 82.6149 37.257C82.6149 36.5384 82.8366 35.9387 83.2799 35.458C83.7232 34.9774 84.3042 34.737 85.0229 34.737C85.6482 34.737 86.1616 34.8957 86.5629 35.213L86.3039 35.689C86.0146 35.4277 85.6109 35.297 85.0929 35.297C84.5422 35.297 84.0966 35.4767 83.7559 35.836C83.4152 36.1954 83.2449 36.669 83.2449 37.257C83.2449 37.8497 83.4152 38.3257 83.7559 38.685C84.1012 39.0397 84.5539 39.217 85.1139 39.217C85.3472 39.217 85.5829 39.1774 85.8209 39.098C86.0589 39.014 86.2432 38.909 86.3739 38.783V37.775H85.0509ZM90.3258 39.707H89.7308V34.807C89.8335 34.807 90.0692 34.8047 90.4378 34.8C90.8065 34.7954 91.0095 34.793 91.0468 34.793C92.2088 34.793 92.7898 35.2784 92.7898 36.249C92.7898 36.6084 92.6848 36.9117 92.4748 37.159C92.2695 37.4017 92.0198 37.5604 91.7258 37.635L93.3568 39.707H92.6288L91.1238 37.747H90.3258V39.707ZM91.0118 35.353C90.8625 35.353 90.6338 35.3577 90.3258 35.367V37.187H91.0468C91.3455 37.187 91.6045 37.103 91.8238 36.935C92.0478 36.7624 92.1598 36.536 92.1598 36.256C92.1598 35.654 91.7772 35.353 91.0118 35.353ZM95.2975 37.257C95.2975 36.543 95.5331 35.9457 96.0045 35.465C96.4758 34.9797 97.0731 34.737 97.7965 34.737C98.5151 34.737 99.1101 34.9727 99.5815 35.444C100.057 35.9154 100.295 36.5197 100.295 37.257C100.295 37.9804 100.057 38.5824 99.5815 39.063C99.1055 39.539 98.5105 39.777 97.7965 39.777C97.0778 39.777 96.4805 39.5414 96.0045 39.07C95.5331 38.5987 95.2975 37.9944 95.2975 37.257ZM95.9275 37.257C95.9275 37.8124 96.1071 38.279 96.4665 38.657C96.8258 39.0304 97.2691 39.217 97.7965 39.217C98.3471 39.217 98.7951 39.0304 99.1405 38.657C99.4905 38.2837 99.6655 37.817 99.6655 37.257C99.6655 36.6924 99.4858 36.2257 99.1265 35.857C98.7671 35.4837 98.3238 35.297 97.7965 35.297C97.2598 35.297 96.8141 35.4814 96.4595 35.85C96.1048 36.2187 95.9275 36.6877 95.9275 37.257ZM106.886 34.807V37.663C106.886 38.3677 106.706 38.895 106.347 39.245C105.987 39.595 105.535 39.77 104.989 39.77C104.377 39.77 103.885 39.5857 103.512 39.217C103.143 38.8437 102.959 38.3094 102.959 37.614V34.807H103.554V37.502C103.554 38.0387 103.677 38.4587 103.925 38.762C104.177 39.0607 104.531 39.21 104.989 39.21C105.399 39.21 105.719 39.07 105.948 38.79C106.176 38.5054 106.291 38.09 106.291 37.544V34.807H106.886ZM110.525 39.707H109.93V34.807C110.019 34.807 110.227 34.8047 110.553 34.8C110.885 34.7954 111.104 34.793 111.211 34.793C111.855 34.793 112.317 34.9377 112.597 35.227C112.882 35.5117 113.024 35.8734 113.024 36.312C113.024 36.7414 112.87 37.1054 112.562 37.404C112.259 37.7027 111.825 37.852 111.26 37.852C110.99 37.852 110.745 37.8427 110.525 37.824V39.707ZM111.267 35.353C111.081 35.353 110.833 35.3577 110.525 35.367V37.257C110.791 37.2804 111.029 37.292 111.239 37.292C111.599 37.292 111.881 37.2057 112.086 37.033C112.292 36.8557 112.394 36.613 112.394 36.305C112.394 36.0064 112.301 35.773 112.114 35.605C111.928 35.437 111.645 35.353 111.267 35.353Z" fill="white"/>
</svg>
