<svg width="20" height="20" viewBox="0 0 20 20" fill="none" xmlns="http://www.w3.org/2000/svg">
<path d="M19.424 6.6686C18.19 3.1476 15.128 0.62975 11.431 0.09975C10.497 -0.03325 9.50499 -0.03325 8.56799 0.09975C4.87299 0.62975 1.81102 3.14754 0.580017 6.66054C0.195017 7.72454 0 8.84863 0 10.0006C0 11.1526 0.194989 12.2757 0.575989 13.3317C1.80999 16.8527 4.87197 19.3705 8.56897 19.9005C9.03597 19.9665 9.517 20.0006 10 20.0006C10.483 20.0006 10.964 19.9675 11.432 19.9005C15.127 19.3705 18.189 16.8527 19.42 13.3397C19.805 12.2757 20 11.1517 20 9.99965C20 8.84765 19.805 7.7246 19.424 6.6686ZM18 9.99965C18 10.6827 17.914 11.3516 17.743 12.0006H14.865C14.945 11.3366 15 10.6697 15 9.99965C15 9.32965 14.945 8.66263 14.865 8.00063H17.744C17.914 8.64663 18 9.31565 18 9.99965ZM7.15399 12.0006C7.06299 11.3386 7 10.6697 7 9.99965C7 9.33165 7.06199 8.66463 7.15399 8.00063H12.847C12.938 8.66263 13.001 9.32965 13.001 9.99965C13.001 10.6687 12.939 11.3356 12.847 12.0006H7.15399ZM2.25598 12.0006C2.08598 11.3546 2 10.6837 2 9.99965C2 9.31765 2.08598 8.64863 2.25598 8.00063H5.13501C5.05501 8.66363 5 9.33065 5 9.99965C5 10.6707 5.05501 11.3386 5.13501 12.0006H2.25598ZM16.909 6.00063H14.498C14.23 4.86963 13.847 3.77976 13.351 2.73476C14.845 3.42076 16.083 4.55963 16.909 6.00063ZM10.702 2.04872C11.479 3.28172 12.065 4.60163 12.445 6.00063H7.55499C7.93399 4.60563 8.51997 3.28372 9.29797 2.04872C9.53197 2.02872 9.763 1.99965 10 1.99965C10.238 1.99965 10.469 2.02872 10.702 2.04872ZM6.64899 2.73354C6.15199 3.78054 5.76898 4.87063 5.50098 6.00063H3.08899C3.91499 4.56063 5.15399 3.42054 6.64899 2.73354ZM3.09198 14.0006H5.50201C5.77001 15.1306 6.15299 16.2205 6.64899 17.2645C5.15599 16.5795 3.91898 15.4406 3.09198 14.0006ZM9.297 17.9506C8.521 16.7176 7.93499 15.3976 7.55499 14.0006H12.444C12.065 15.3956 11.479 16.7166 10.702 17.9506C10.234 17.9896 9.764 17.9896 9.297 17.9506ZM13.352 17.2658C13.848 16.2198 14.231 15.1296 14.499 14.0006H16.91C16.084 15.4396 14.846 16.5798 13.352 17.2658Z" fill="white"/>
</svg>
