<svg width="20" height="18" viewBox="0 0 20 18" fill="none" xmlns="http://www.w3.org/2000/svg">
<path d="M15.958 12.4375V16.1042C15.958 17.1153 15.1358 17.9375 14.1247 17.9375C13.1136 17.9375 12.2913 17.1153 12.2913 16.1042V12.4375C12.2913 11.4264 13.1136 10.6042 14.1247 10.6042C15.1358 10.6042 15.958 11.4264 15.958 12.4375ZM5.87467 10.6042C4.86359 10.6042 4.04134 11.4264 4.04134 12.4375V16.1042C4.04134 17.1153 4.86359 17.9375 5.87467 17.9375C6.88576 17.9375 7.70801 17.1153 7.70801 16.1042V12.4375C7.70801 11.4264 6.88576 10.6042 5.87467 10.6042ZM9.99967 0.0625C4.94517 0.0625 0.833008 4.17467 0.833008 9.22917V13.8125C0.833008 14.3194 1.24367 14.7292 1.74967 14.7292C2.25567 14.7292 2.66634 14.3194 2.66634 13.8125V9.22917C2.66634 5.18575 5.95626 1.89583 9.99967 1.89583C14.0431 1.89583 17.333 5.18575 17.333 9.22917V13.8125C17.333 14.3194 17.7437 14.7292 18.2497 14.7292C18.7557 14.7292 19.1663 14.3194 19.1663 13.8125V9.22917C19.1663 4.17467 15.0542 0.0625 9.99967 0.0625Z" fill="white"/>
</svg>
