<svg width="16" height="16" viewBox="0 0 16 16" fill="none" xmlns="http://www.w3.org/2000/svg">
<path d="M15.8088 6.80037C15.013 10.8804 10.8305 13.7461 9.06965 14.7895C8.73965 14.9836 8.3705 15.082 8.00133 15.082C7.63216 15.082 7.26299 14.9845 6.93299 14.7895C5.17132 13.7461 0.988834 10.8812 0.193 6.80037C-0.1395 5.09454 0.313003 3.2861 1.40384 1.9611C2.40217 0.749434 3.78967 0.0820312 5.31133 0.0820312C6.26883 0.0820312 7.193 0.324526 8.00133 0.78536C8.80966 0.324526 9.73383 0.0820312 10.6913 0.0820312C12.213 0.0820312 13.6005 0.749434 14.5988 1.9611C15.6888 3.2861 16.1413 5.09454 15.8088 6.80037Z" fill="white"/>
</svg>
