<svg width="63" height="55" viewBox="0 0 63 55" fill="none" xmlns="http://www.w3.org/2000/svg">
<g clip-path="url(#clip0_1197_5698)">
<path d="M38.4541 26.4704L32.3188 31.7657L6.4105 54.1238C5.73033 54.7121 4.85779 55.0063 3.98525 55.0063C3.03027 55.0063 2.07528 54.6558 1.38137 53.961C0.0141581 52.5965 0.192789 50.4621 1.76611 49.2979L32.3188 26.7834L35.6853 24.3047L38.4541 26.4704Z" fill="#0EA088"/>
<path d="M32.0507 32.0358L26.0116 37.2435L25.4551 31.8919L28.7597 29.457L32.0507 32.0358Z" fill="#0C6758"/>
<path d="M62.6231 18.277C62.6231 28.3732 53.6367 36.5603 42.5616 36.5603C35.5812 36.5603 29.4322 33.3117 25.839 28.3794C23.7298 25.4876 22.5 22.0138 22.5 18.277C22.5 8.18083 31.4865 0 42.5616 0C47.5632 0 52.132 1.66496 55.6428 4.41903C59.9162 7.77398 62.6231 12.7376 62.6231 18.277Z" fill="#0EA088"/>
<path d="M42.5599 32.5147C51.1922 32.5147 58.19 26.1394 58.19 18.2749C58.19 10.4105 51.1922 4.03516 42.5599 4.03516C33.9276 4.03516 26.9297 10.4105 26.9297 18.2749C26.9297 26.1394 33.9276 32.5147 42.5599 32.5147Z" fill="white"/>
<path opacity="0.06" d="M62.622 18.2759C62.622 28.3721 53.6355 36.5592 42.5604 36.5592C35.5801 36.5592 29.4311 33.3106 25.8379 28.3784C48.4621 26.7009 54.4256 9.23759 55.6486 4.41797C59.9151 7.77292 62.622 12.7365 62.622 18.2759Z" fill="#1A6FB5" fill-opacity="0.5"/>
<path d="M42.5622 18.3081C44.376 18.3081 45.8463 16.9686 45.8463 15.3161C45.8463 13.6637 44.376 12.3242 42.5622 12.3242C40.7485 12.3242 39.2782 13.6637 39.2782 15.3161C39.2782 16.9686 40.7416 18.3081 42.5622 18.3081ZM42.5622 19.804C40.3706 19.804 35.9941 20.8055 35.9941 22.7959V23.5471C35.9941 23.9602 36.3651 24.2982 36.8186 24.2982H48.3196C48.7731 24.2982 49.1441 23.9602 49.1441 23.5471V22.7959C49.1304 20.8118 44.7539 19.804 42.5622 19.804Z" fill="url(#paint0_linear_1197_5698)"/>
</g>
<defs>
<linearGradient id="paint0_linear_1197_5698" x1="42.6437" y1="-2.5" x2="42.5832" y2="24.2982" gradientUnits="userSpaceOnUse">
<stop stop-color="#0EA088"/>
<stop offset="1" stop-color="#00513E"/>
</linearGradient>
<clipPath id="clip0_1197_5698">
<rect width="62.1634" height="55" fill="white" transform="translate(0.462891)"/>
</clipPath>
</defs>
</svg>
