<svg width="17" height="16" viewBox="0 0 17 16" fill="none" xmlns="http://www.w3.org/2000/svg">
<path d="M8.25058 5.2164C6.81699 5.2164 5.64706 6.38632 5.64706 7.81992C5.64706 9.25351 6.81699 10.4234 8.25058 10.4234C9.68417 10.4234 10.8541 9.25351 10.8541 7.81992C10.8541 6.38632 9.68417 5.2164 8.25058 5.2164ZM16.0592 7.81992C16.0592 6.74179 16.0689 5.67343 16.0084 4.59726C15.9478 3.34726 15.6627 2.23789 14.7486 1.32382C13.8326 0.407807 12.7252 0.124604 11.4752 0.0640575C10.3971 0.0035106 9.3287 0.0132763 8.25253 0.0132763C7.17441 0.0132763 6.10605 0.0035106 5.02988 0.0640575C3.77988 0.124604 2.6705 0.409761 1.75644 1.32382C0.840425 2.23984 0.557222 3.34726 0.496675 4.59726C0.436128 5.67539 0.445893 6.74375 0.445893 7.81992C0.445893 8.89609 0.436128 9.9664 0.496675 11.0426C0.557222 12.2926 0.842378 13.4019 1.75644 14.316C2.67246 15.232 3.77988 15.5152 5.02988 15.5758C6.108 15.6363 7.17636 15.6266 8.25253 15.6266C9.33066 15.6266 10.399 15.6363 11.4752 15.5758C12.7252 15.5152 13.8346 15.2301 14.7486 14.316C15.6646 13.4 15.9478 12.2926 16.0084 11.0426C16.0709 9.9664 16.0592 8.89804 16.0592 7.81992ZM8.25058 11.8258C6.03378 11.8258 4.24472 10.0367 4.24472 7.81992C4.24472 5.60312 6.03378 3.81406 8.25058 3.81406C10.4674 3.81406 12.2564 5.60312 12.2564 7.81992C12.2564 10.0367 10.4674 11.8258 8.25058 11.8258ZM12.4205 4.58554C11.9029 4.58554 11.485 4.16757 11.485 3.65C11.485 3.13242 11.9029 2.71445 12.4205 2.71445C12.9381 2.71445 13.356 3.13242 13.356 3.65C13.3562 3.7729 13.3321 3.89462 13.2851 4.0082C13.2382 4.12177 13.1693 4.22497 13.0824 4.31187C12.9955 4.39878 12.8923 4.46768 12.7787 4.51464C12.6651 4.5616 12.5434 4.5857 12.4205 4.58554Z" fill="white"/>
</svg>
