<svg width="17" height="17" viewBox="0 0 17 17" fill="none" xmlns="http://www.w3.org/2000/svg">
<path d="M8.66467 0.294922C4.31862 0.294922 0.782593 3.83094 0.782593 8.177C0.782593 12.5231 4.31862 16.0591 8.66467 16.0591C13.0107 16.0591 16.5468 12.5231 16.5468 8.177C16.5468 3.83094 13.0107 0.294922 8.66467 0.294922ZM8.66467 14.8465C4.98718 14.8465 1.99522 11.8545 1.99522 8.177C1.99522 4.49951 4.98718 1.50755 8.66467 1.50755C12.3422 1.50755 15.3341 4.49951 15.3341 8.177C15.3341 11.8545 12.3422 14.8465 8.66467 14.8465ZM12.5047 8.177C12.5047 8.51169 12.233 8.78332 11.8983 8.78332H8.66467C8.32999 8.78332 8.05836 8.51169 8.05836 8.177V4.13491C8.05836 3.80022 8.32999 3.5286 8.66467 3.5286C8.99936 3.5286 9.27099 3.80022 9.27099 4.13491V7.57069H11.8983C12.233 7.57069 12.5047 7.84232 12.5047 8.177Z" fill="#4E4F55"/>
</svg>
