<svg width="13" height="17" viewBox="0 0 13 17" fill="none" xmlns="http://www.w3.org/2000/svg">
<path d="M12.5516 4.27605L8.9832 0.707639C8.71561 0.440052 8.36072 0.292969 7.98319 0.292969H4.27578C2.15853 0.292969 0.435791 2.01571 0.435791 4.13296V12.2171C0.435791 14.3344 2.15853 16.0571 4.27578 16.0571H9.12629C11.2435 16.0571 12.9663 14.3344 12.9663 12.2171V5.27601C12.9663 4.89848 12.8191 4.54283 12.5516 4.27605ZM8.92419 2.36257L10.8959 4.33427H10.3389C9.55879 4.33427 8.92419 3.69966 8.92419 2.91954V2.36257ZM9.12629 14.8445H4.27578C2.82709 14.8445 1.64842 13.6658 1.64842 12.2171V4.13296C1.64842 2.68427 2.82709 1.5056 4.27578 1.5056H7.71156V2.92033C7.71156 4.36901 8.89023 5.54769 10.3389 5.54769H11.7537V12.2171C11.7537 13.6658 10.575 14.8445 9.12629 14.8445Z" fill="#4E4F55"/>
</svg>
