<svg width="20" height="20" viewBox="0 0 20 20" fill="none" xmlns="http://www.w3.org/2000/svg">
<path d="M9.91086 4.33008L15.6709 10.0901L7.77091 18C7.40091 18.37 6.93087 18.61 6.42087 18.7L1.68088 19.49C1.62088 19.5 1.5709 19.5 1.5109 19.5C1.2509 19.5 0.990879 19.39 0.800879 19.2C0.570879 18.97 0.460901 18.6401 0.510901 18.3201L1.30088 13.5801C1.39088 13.0701 1.63089 12.6 2.00089 12.23L9.91086 4.33008ZM18.3009 1.69995C17.5309 0.919951 16.5109 0.5 15.4209 0.5C14.3309 0.5 13.3109 0.919951 12.5409 1.69995L11.3309 2.90991L17.0909 8.66992L18.3009 7.45996C19.0809 6.68996 19.5009 5.67008 19.5009 4.58008C19.5009 3.49008 19.0809 2.46995 18.3009 1.69995Z" fill="white"/>
</svg>
