<svg width="13" height="13" viewBox="0 0 13 13" fill="none" xmlns="http://www.w3.org/2000/svg">
<path d="M11.806 11.5072C11.2923 12.1009 10.5579 12.4372 9.78037 12.4372C9.756 12.4372 9.73162 12.4372 9.70724 12.4366C4.71474 12.3009 0.697866 8.284 0.563491 3.29213C0.541616 2.4815 0.882872 1.71336 1.49912 1.18336C2.08475 0.678986 2.84725 0.468418 3.59225 0.601543C3.70662 0.622168 3.80475 0.648354 3.8885 0.675854C4.2185 0.785229 4.4585 1.07097 4.5135 1.41972L4.93227 4.07902C4.98477 4.41215 4.85476 4.74973 4.59414 4.96098C4.54164 5.00348 4.48725 5.04402 4.43037 5.08152C4.28537 5.18027 4.23037 5.34841 4.29537 5.49778C4.92162 6.93841 6.05914 8.07588 7.49915 8.70213C7.64914 8.76775 7.81725 8.71155 7.91849 8.56343C7.94787 8.52093 7.97849 8.47907 8.00974 8.43907C8.21974 8.17157 8.56414 8.04274 8.90414 8.09712L11.6116 8.54786C11.9691 8.60786 12.2598 8.86096 12.3529 9.19346C12.3698 9.25409 12.386 9.32286 12.3998 9.40098C12.5304 10.1516 12.3141 10.9184 11.806 11.5072Z" fill="white"/>
</svg>
