<svg width="29" height="29" viewBox="0 0 29 29" fill="none" xmlns="http://www.w3.org/2000/svg">
<circle cx="14.5" cy="14.5" r="14" stroke="#ECEDEE"/>
<path d="M20 14.1558C20 14.8366 19.4624 15.3869 18.8 15.3869H15.2V19.0804C15.2 19.7612 14.6624 20.3115 14 20.3115C13.3376 20.3115 12.8 19.7612 12.8 19.0804V15.3869H9.2C8.5376 15.3869 8 14.8366 8 14.1558C8 13.4749 8.5376 12.9246 9.2 12.9246H12.8V9.23115C12.8 8.55033 13.3376 8 14 8C14.6624 8 15.2 8.55033 15.2 9.23115V12.9246H18.8C19.4624 12.9246 20 13.4749 20 14.1558Z" fill="#0CA984"/>
</svg>
