<svg width="18" height="18" viewBox="0 0 18 18" fill="none" xmlns="http://www.w3.org/2000/svg">
<path d="M17.089 15.9102L13.3065 12.1276C14.259 10.9209 14.8332 9.40185 14.8332 7.74935C14.8332 3.84352 11.6557 0.666016 7.74984 0.666016C3.844 0.666016 0.666504 3.84352 0.666504 7.74935C0.666504 11.6552 3.844 14.8327 7.74984 14.8327C9.40317 14.8327 10.9215 14.2593 12.1282 13.306L15.9107 17.0885C16.0732 17.251 16.2865 17.3327 16.4998 17.3327C16.7132 17.3327 16.9265 17.251 17.089 17.0885C17.4148 16.7627 17.4148 16.236 17.089 15.9102ZM2.33317 7.74935C2.33317 4.76268 4.76317 2.33268 7.74984 2.33268C10.7365 2.33268 13.1665 4.76268 13.1665 7.74935C13.1665 10.736 10.7365 13.166 7.74984 13.166C4.76317 13.166 2.33317 10.736 2.33317 7.74935Z" fill="white"/>
</svg>
