<svg width="18" height="18" viewBox="0 0 18 18" fill="none" xmlns="http://www.w3.org/2000/svg">
<path fill-rule="evenodd" clip-rule="evenodd" d="M15.4582 9.97534C15.3748 9.88367 15.2582 9.83374 15.1415 9.83374H2.85817C2.74151 9.83374 2.62484 9.88367 2.5415 9.97534C2.4665 10.067 2.43317 10.1838 2.44151 10.3088L3.03317 14.792C3.22483 16.242 4.4665 17.3337 5.92484 17.3337H12.0915C13.5582 17.3337 14.8082 16.242 14.9915 14.7837L15.5582 10.3005C15.5665 10.1838 15.5332 10.067 15.4582 9.97534ZM8.1665 14.0004C8.1665 14.4587 7.7915 14.8337 7.33317 14.8337C6.87484 14.8337 6.49984 14.4587 6.49984 14.0004V12.3337C6.49984 11.8754 6.87484 11.5004 7.33317 11.5004C7.7915 11.5004 8.1665 11.8754 8.1665 12.3337V14.0004ZM11.4998 14.0004C11.4998 14.4587 11.1248 14.8337 10.6665 14.8337C10.2082 14.8337 9.83317 14.4587 9.83317 14.0004V12.3337C9.83317 11.8754 10.2082 11.5004 10.6665 11.5004C11.1248 11.5004 11.4998 11.8754 11.4998 12.3337V14.0004ZM17.3332 6.70874C17.3332 7.74457 16.494 8.58374 15.4582 8.58374H2.5415C1.50567 8.58374 0.666504 7.74457 0.666504 6.70874C0.666504 5.67291 1.50567 4.83374 2.5415 4.83374H4.3615L6.61901 1.07133C6.85567 0.675494 7.36652 0.54798 7.76235 0.78548C8.15735 1.02215 8.28484 1.53367 8.04817 1.92867L6.30567 4.83292H11.6957L9.95318 1.92867C9.71651 1.53367 9.844 1.02215 10.239 0.78548C10.634 0.548813 11.1457 0.676328 11.3823 1.07133L13.6398 4.83374H15.4598C16.494 4.83374 17.3332 5.67291 17.3332 6.70874Z" fill="white"/>
</svg>
