<svg width="70" height="67" viewBox="0 0 70 67" fill="none" xmlns="http://www.w3.org/2000/svg">
<path d="M66.323 2.79297H5.07859C3.81901 2.79297 2.80078 3.45765 2.80078 4.27989V62.7227C2.80078 63.545 3.81901 64.2096 5.07859 64.2096H66.323C67.5826 64.2096 68.6008 63.545 68.6008 62.7227V4.27989C68.5932 3.45765 67.575 2.79297 66.323 2.79297Z" fill="url(#paint0_linear_1197_5676)"/>
<path d="M62.192 6.98047H9.20798C7.99134 6.98047 7 7.6535 7 8.48458V58.5231C7 59.3542 7.99134 60.0221 9.20798 60.0221H62.192C63.4162 60.0221 64.4 59.3491 64.4 58.5231V8.48458C64.4 7.6535 63.4162 6.98047 62.192 6.98047Z" fill="white"/>
<path d="M32.2379 36.8056H14.566C13.7572 36.8056 13.1016 36.1158 13.1016 35.2648V16.6658C13.1016 15.8148 13.7572 15.125 14.566 15.125H32.2379C33.0467 15.125 33.7024 15.8148 33.7024 16.6658V35.2584C33.7024 36.1093 33.0467 36.8056 32.2379 36.8056Z" fill="#00513E"/>
<path d="M58.0948 47.4079H13.9599C13.1207 47.4079 12.4473 46.6123 12.4473 45.648V45.4552C12.4473 44.4788 13.131 43.6953 13.9599 43.6953H58.0948C58.934 43.6953 59.6074 44.4909 59.6074 45.4552V45.648C59.6178 46.6123 58.934 47.4079 58.0948 47.4079Z" fill="#0E9F89"/>
<path d="M58.0948 54.8336H13.9599C13.1207 54.8336 12.4473 54.0381 12.4473 53.0738V52.8809C12.4473 51.9046 13.131 51.1211 13.9599 51.1211H58.0948C58.934 51.1211 59.6074 51.9166 59.6074 52.8809V53.0738C59.6178 54.0381 58.934 54.8336 58.0948 54.8336Z" fill="#0E9F89"/>
<path d="M58.0948 47.4079H13.9599C13.1207 47.4079 12.4473 46.6123 12.4473 45.648V45.4552C12.4473 44.4788 13.131 43.6953 13.9599 43.6953H58.0948C58.934 43.6953 59.6074 44.4909 59.6074 45.4552V45.648C59.6178 46.6123 58.934 47.4079 58.0948 47.4079Z" fill="#0E9F89"/>
<path d="M58.0948 54.8336H13.9599C13.1207 54.8336 12.4473 54.0381 12.4473 53.0738V52.8809C12.4473 51.9046 13.131 51.1211 13.9599 51.1211H58.0948C58.934 51.1211 59.6074 51.9166 59.6074 52.8809V53.0738C59.6178 54.0381 58.934 54.8336 58.0948 54.8336Z" fill="#0E9F89"/>
<path d="M23.393 25.3898C25.2873 25.3898 26.8229 23.858 26.8229 21.9683C26.8229 20.0787 25.2873 18.5469 23.393 18.5469C21.4986 18.5469 19.9631 20.0787 19.9631 21.9683C19.9631 23.858 21.4915 25.3898 23.393 25.3898ZM23.393 27.1005C21.104 27.1005 16.5332 28.2458 16.5332 30.522V31.3809C16.5332 31.8534 16.9207 32.2399 17.3943 32.2399H29.406C29.8796 32.2399 30.2671 31.8534 30.2671 31.3809V30.522C30.2527 28.2529 25.6819 27.1005 23.393 27.1005Z" fill="white"/>
<defs>
<linearGradient id="paint0_linear_1197_5676" x1="6.78693" y1="31.9022" x2="68.0692" y2="39.848" gradientUnits="userSpaceOnUse">
<stop stop-color="#0CA984"/>
<stop offset="1" stop-color="#0F838E"/>
</linearGradient>
</defs>
</svg>
