<svg width="17" height="17" viewBox="0 0 17 17" fill="none" xmlns="http://www.w3.org/2000/svg">
<path d="M16.0208 8.53191C16.0208 4.33437 12.6483 0.921875 8.49992 0.921875C4.35159 0.921874 0.979085 4.33437 0.979085 8.53191C0.979084 12.7294 4.35158 16.1419 8.49992 16.1419C12.6483 16.1419 16.0208 12.7294 16.0208 8.53191ZM7.93787 10.7028L5.56287 8.29962C5.41245 8.13941 5.33325 7.93912 5.33325 7.73085C5.33325 7.52257 5.41245 7.32229 5.56287 7.16208C5.87162 6.84967 6.37822 6.84967 6.68697 7.16208L8.49992 9.00455L10.3129 7.16208C10.6216 6.84967 11.1282 6.84967 11.437 7.16208C11.7457 7.47449 11.7457 7.98721 11.437 8.29962L9.06197 10.7028C8.75322 11.0152 8.24662 11.0152 7.93787 10.7028Z" fill="#0A5745"/>
</svg>
