<svg width="20" height="12" viewBox="0 0 20 12" fill="none" xmlns="http://www.w3.org/2000/svg">
<path fill-rule="evenodd" clip-rule="evenodd" d="M18.8146 1.52882C18.946 1.09657 18.8146 0.77832 18.1852 0.77832H16.1071C15.5783 0.77832 15.3344 1.05303 15.2022 1.35624C15.2022 1.35624 14.1453 3.8864 12.6483 5.5299C12.1638 6.00649 11.9437 6.1577 11.6793 6.1577C11.5471 6.1577 11.3484 6.00649 11.3484 5.57345V1.52882C11.3484 1.00949 11.2027 0.77832 10.7625 0.77832H7.49454C7.16442 0.77832 6.96571 1.01899 6.96571 1.24778C6.96571 1.7394 7.71463 1.8534 7.79142 3.23724V6.24399C7.79142 6.90345 7.67029 7.02299 7.40587 7.02299C6.70129 7.02299 4.98733 4.48095 3.97004 1.57236C3.77292 1.00632 3.57342 0.77832 3.04221 0.77832H0.9625C0.36875 0.77832 0.25 1.05303 0.25 1.35624C0.25 1.89615 0.954583 4.57832 3.53146 8.12578C5.24938 10.5483 7.66792 11.8617 9.87113 11.8617C11.1924 11.8617 11.3555 11.5703 11.3555 11.0676V9.23649C11.3555 8.65303 11.4806 8.53665 11.8994 8.53665C12.2081 8.53665 12.7362 8.68865 13.9696 9.85636C15.3787 11.241 15.6107 11.8617 16.404 11.8617H18.4821C19.0758 11.8617 19.3735 11.5703 19.2025 10.994C19.0141 10.4208 18.3412 9.58878 17.449 8.60157C16.9645 8.03949 16.2377 7.43386 16.0168 7.13065C15.7089 6.74195 15.7968 6.56857 16.0168 6.22261C16.0168 6.22261 18.5502 2.7187 18.8138 1.52882H18.8146Z" fill="white"/>
</svg>
