<svg width="16" height="16" viewBox="0 0 16 16" fill="none" xmlns="http://www.w3.org/2000/svg">
<path d="M15.8078 6.80135C15.012 10.8814 10.8295 13.7471 9.06867 14.7904C8.73867 14.9846 8.36952 15.083 8.00035 15.083C7.63119 15.083 7.26201 14.9854 6.93201 14.7904C5.17034 13.7471 0.987857 10.8822 0.192024 6.80135C-0.140476 5.09552 0.312026 3.28708 1.40286 1.96208C2.40119 0.75041 3.78869 0.0830078 5.31036 0.0830078C6.26786 0.0830078 7.19202 0.325503 8.00035 0.786336C8.80869 0.325503 9.73285 0.0830078 10.6903 0.0830078C12.212 0.0830078 13.5995 0.75041 14.5978 1.96208C15.6878 3.28708 16.1403 5.09552 15.8078 6.80135Z" fill="white"/>
</svg>
