<svg width="19" height="19" viewBox="0 0 19 19" fill="none" xmlns="http://www.w3.org/2000/svg">
<path d="M17.636 17.1783C16.8483 18.0887 15.7222 18.6043 14.5301 18.6043C14.4927 18.6043 14.4553 18.6043 14.4179 18.6034C6.76277 18.3954 0.603557 12.2361 0.397515 4.58191C0.363974 3.33895 0.887232 2.16114 1.83215 1.34847C2.73011 0.575096 3.89927 0.252226 5.04161 0.456351C5.21698 0.487976 5.36744 0.528127 5.49585 0.570293C6.00185 0.738002 6.36985 1.17614 6.45419 1.71089L7.09631 5.78848C7.17681 6.29928 6.97747 6.8169 6.57784 7.14082C6.49734 7.20599 6.41394 7.26815 6.32673 7.32565C6.1044 7.47707 6.02006 7.73488 6.11973 7.96392C7.07998 10.1729 8.82418 11.917 11.0322 12.8772C11.2622 12.9779 11.5199 12.8917 11.6752 12.6646C11.7202 12.5994 11.7672 12.5352 11.8151 12.4739C12.1371 12.0637 12.6652 11.8662 13.1865 11.9496L17.338 12.6407C17.8861 12.7327 18.3318 13.1208 18.4746 13.6306C18.5005 13.7236 18.5254 13.829 18.5465 13.9488C18.7468 15.0998 18.4152 16.2755 17.636 17.1783Z" fill="white"/>
</svg>
