<svg width="19" height="13" viewBox="0 0 19 13" fill="none" xmlns="http://www.w3.org/2000/svg">
<path d="M18.554 2.0958C18.4494 1.70623 18.2443 1.35097 17.9593 1.06556C17.6742 0.780157 17.3192 0.574624 16.9298 0.469531C15.4963 0.0839845 9.75 0.0839844 9.75 0.0839844C9.75 0.0839844 4.00371 0.0839843 2.57021 0.46748C2.18061 0.572232 1.82542 0.777652 1.54032 1.06311C1.25523 1.34857 1.05026 1.70401 0.945996 2.09375C0.5625 3.5293 0.5625 6.52344 0.5625 6.52344C0.5625 6.52344 0.5625 9.51758 0.945996 10.9511C1.15723 11.7427 1.78066 12.3661 2.57021 12.5773C4.00371 12.9629 9.75 12.9629 9.75 12.9629C9.75 12.9629 15.4963 12.9629 16.9298 12.5773C17.7214 12.3661 18.3428 11.7427 18.554 10.9511C18.9375 9.51758 18.9375 6.52344 18.9375 6.52344C18.9375 6.52344 18.9375 3.5293 18.554 2.0958ZM7.9248 9.27148V3.77539L12.6826 6.50293L7.9248 9.27148Z" fill="white"/>
</svg>
